<svg width="17" height="24" viewBox="0 0 17 24" fill="none" xmlns="http://www.w3.org/2000/svg">
<path d="M5.25714 12.9691H8.08527C11.304 12.9691 13.304 14.6097 13.304 17.266C13.304 19.6254 11.1634 21.3129 8.17902 21.3129C5.14777 21.3129 3.22589 19.7191 2.97589 17.4066H0.272766C0.475891 21.141 3.49152 23.7504 8.21027 23.7504C12.6321 23.7504 16.1634 21.0472 16.1634 17.1722C16.1634 14.0004 13.9759 11.891 10.5696 11.6879V11.6254C13.3821 11.1254 15.1946 9.09412 15.1946 6.26599C15.1946 2.87537 12.1478 0.453491 8.11652 0.453491C3.88214 0.453491 1.03839 2.90662 0.725891 6.73474H3.42902C3.67902 4.37537 5.39777 2.89099 7.99152 2.89099C10.8509 2.89099 12.3665 4.40662 12.3665 6.64099C12.3665 8.92224 10.554 10.5941 7.96027 10.5941H5.25714V12.9691Z" fill="#464B51"/>
</svg>
