<svg width="17" height="24" viewBox="0 0 17 24" fill="none" xmlns="http://www.w3.org/2000/svg">
<path d="M8.70245 23.7504C13.4056 23.7504 16.7337 20.5785 16.7337 16.0472C16.7337 11.6722 13.6087 8.50037 9.28058 8.50037C7.12433 8.50037 5.24933 9.31287 4.2337 10.6722H4.1712L4.8587 3.32849H15.4525V0.828491H2.5462L1.31183 13.4535H3.95245C4.87433 11.8754 6.6712 10.9222 8.78058 10.9222C11.7806 10.9222 13.9212 13.0941 13.9212 16.1254C13.9212 19.1566 11.7962 21.2816 8.7337 21.2816C6.03058 21.2816 3.9837 19.6254 3.7337 17.2191H0.968079C1.20245 21.0629 4.38995 23.7504 8.70245 23.7504Z" fill="#464B51"/>
</svg>
