<svg width="17" height="24" viewBox="0 0 17 24" fill="none" xmlns="http://www.w3.org/2000/svg">
<path d="M8.81964 23.766C13.4446 23.766 16.804 20.516 16.804 16.0629C16.804 11.7816 13.6165 8.60974 9.31964 8.60974C6.52277 8.60974 4.03839 10.0629 3.02277 12.266H2.97589C3.06964 6.26599 5.21027 2.92224 8.97589 2.92224C11.2103 2.92224 13.0228 4.23474 13.6321 6.28162H16.4915C15.7728 2.73474 12.8353 0.437866 9.00714 0.437866C3.49152 0.437866 0.257141 4.89099 0.257141 12.4847C0.257141 14.9222 0.616516 16.9535 1.36652 18.6879C2.75714 21.9379 5.44464 23.766 8.81964 23.766ZM8.78839 21.266C5.89777 21.266 3.64777 18.9691 3.64777 16.0785C3.64777 13.2035 5.85089 11.0785 8.83527 11.0785C11.8196 11.0785 13.9446 13.2035 13.9446 16.1566C13.9446 19.0004 11.6634 21.266 8.78839 21.266Z" fill="#464B51"/>
</svg>
