<svg width="17" height="24" viewBox="0 0 17 24" fill="none" xmlns="http://www.w3.org/2000/svg">
<path d="M7.82062 23.7504C13.3362 23.7504 16.555 19.3129 16.555 11.7191C16.555 9.26599 16.1956 7.23474 15.4456 5.50037C14.0706 2.26599 11.3831 0.437866 7.99249 0.437866C3.36749 0.437866 0.00811768 3.68787 0.00811768 8.14099C0.00811768 12.4222 3.19562 15.5941 7.49249 15.5941C10.3675 15.5941 12.8362 14.141 13.7894 11.9066C13.805 11.9066 13.805 11.9066 13.8206 11.9066H13.8362C13.7581 17.891 11.6019 21.2972 7.85187 21.2972C5.61749 21.2972 3.78937 19.9535 3.19562 17.9066H0.336243C1.02374 21.4379 3.97687 23.7504 7.82062 23.7504ZM7.97687 13.1254C5.02374 13.1254 2.85187 10.9847 2.85187 8.04724C2.85187 5.21912 5.13312 2.96912 8.02374 2.96912C10.93 2.96912 13.18 5.23474 13.18 8.12537C13.18 11.0004 10.9612 13.1254 7.97687 13.1254Z" fill="#464B51"/>
</svg>
