<svg width="40" height="49" viewBox="0 0 40 49" fill="none" xmlns="http://www.w3.org/2000/svg">
<path d="M37.8 47.1128H6.30005C3.81477 47.1128 1.80005 45.0981 1.80005 42.6128" stroke="#3C3A38" stroke-width="3" stroke-linecap="round" stroke-linejoin="round"/>
<path fill-rule="evenodd" clip-rule="evenodd" d="M7.80005 2.11279C4.48634 2.11279 1.80005 4.79908 1.80005 8.11279V42.6128C1.80005 40.1275 3.81477 38.1128 6.30005 38.1128H36.3C37.1285 38.1128 37.8 37.4412 37.8 36.6128V3.61279C37.8 2.78437 37.1285 2.11279 36.3 2.11279H7.80005Z" stroke="#3C3A38" stroke-width="3" stroke-linecap="round" stroke-linejoin="round"/>
<path d="M34.8 47.1128V38.1128" stroke="#3C3A38" stroke-width="3" stroke-linecap="round" stroke-linejoin="round"/>
<path fill-rule="evenodd" clip-rule="evenodd" d="M10.8 32.1128C10.8 27.1422 14.8295 23.1128 19.8 23.1128C24.7706 23.1128 28.8 27.1422 28.8 32.1128H10.8Z" stroke="#3C3A38" stroke-width="3" stroke-linecap="round" stroke-linejoin="round"/>
<path d="M19.8 23.1128C23.1138 23.1128 25.8 20.4265 25.8 17.1128C25.8 13.7991 23.1138 11.1128 19.8 11.1128C16.4863 11.1128 13.8 13.7991 13.8 17.1128C13.8 20.4265 16.4863 23.1128 19.8 23.1128Z" stroke="#3C3A38" stroke-width="3" stroke-linecap="round" stroke-linejoin="round"/>
</svg>
