<svg width="31" height="31" viewBox="0 0 31 31" fill="none" xmlns="http://www.w3.org/2000/svg">
<circle cx="15.8281" cy="15.3999" r="14.5" fill="#2CBF3D" stroke="url(#paint0_linear)"/>
<path d="M21.2418 21.1323L21.6995 20.7632C21.9981 20.5227 22.1888 20.1732 22.2297 19.7919C22.2706 19.4106 22.1583 19.0286 21.9175 18.7301L20.3604 16.8002C20.12 16.5018 19.7706 16.311 19.3892 16.2701C19.0079 16.2292 18.626 16.3416 18.3275 16.5824C18.0964 16.7687 17.7578 16.7324 17.5713 16.5011L15.082 13.4127C14.8956 13.1814 14.9319 12.8426 15.1631 12.6561C15.4616 12.4156 15.6523 12.0661 15.6932 11.6848C15.7341 11.3035 15.6218 10.9215 15.381 10.623L13.8247 8.69326C13.3236 8.07198 12.4139 7.97441 11.7925 8.47532L11.3343 8.84424C10.0829 9.85292 9.70005 11.5949 10.4126 13.035C12.0572 16.1382 14.2661 18.8778 16.9307 21.1277C18.2056 22.1466 19.9905 22.1421 21.2418 21.1323Z" fill="#F8F9FB"/>
<mask id="mask0" mask-type="alpha" maskUnits="userSpaceOnUse" x="10" y="8" width="13" height="14">
<path fill-rule="evenodd" clip-rule="evenodd" d="M21.6996 20.7631L21.2418 21.1322C19.9905 22.142 18.2057 22.1465 16.9307 21.1276C14.2661 18.8777 12.0572 16.1381 10.4126 13.0349C9.70006 11.5948 10.083 9.85282 11.3343 8.84414L11.7925 8.47521C12.4139 7.97431 13.3237 8.07188 13.8247 8.69315L15.381 10.6229C15.6218 10.9214 15.7342 11.3034 15.6933 11.6847C15.6524 12.066 15.4616 12.4155 15.1631 12.656C14.9319 12.8425 14.8956 13.1812 15.082 13.4126L17.5713 16.501C17.7578 16.7323 18.0964 16.7686 18.3275 16.5823C18.626 16.3415 19.0079 16.2291 19.3892 16.27C19.7706 16.3109 20.12 16.5017 20.3604 16.8001L21.9175 18.73C22.1583 19.0285 22.2706 19.4105 22.2297 19.7918C22.1888 20.1731 21.9981 20.5226 21.6996 20.7631ZM11.9035 9.5507C10.9851 10.291 10.7028 11.5688 11.2282 12.6376C12.8079 15.6151 14.9433 18.2625 17.5189 20.4366L17.5225 20.4397C18.446 21.1719 19.7541 21.1667 20.6721 20.4259L21.1301 20.0566C21.2412 19.9671 21.3122 19.837 21.3275 19.695C21.3427 19.553 21.3009 19.4108 21.2113 19.2997L19.654 17.3696C19.5644 17.2584 19.4344 17.1874 19.2924 17.1722C19.1505 17.1569 19.0084 17.1988 18.8971 17.2885C18.2757 17.7894 17.366 17.6919 16.8649 17.0705L14.3755 13.9819C13.8747 13.3605 13.9722 12.4508 14.5936 11.9496C14.7048 11.86 14.7758 11.7299 14.791 11.5879C14.8062 11.4459 14.7644 11.3037 14.6747 11.1926L13.1183 9.26271C12.9318 9.03146 12.5932 8.99514 12.3617 9.18177L11.9035 9.5507Z" fill="white"/>
</mask>
<g mask="url(#mask0)">
</g>
<defs>
<linearGradient id="paint0_linear" x1="7.68521" y1="9.68562" x2="29.6138" y2="29.5428" gradientUnits="userSpaceOnUse">
<stop stop-color="#2CBF3D"/>
<stop offset="1" stop-color="#229830"/>
</linearGradient>
</defs>
</svg>
