<svg xmlns="http://www.w3.org/2000/svg" xmlns:xlink="http://www.w3.org/1999/xlink" width="120" height="120" viewBox="0 0 120 120">
    <defs>
        <path id="a" d="M0 0h120v120H0z"/>
    </defs>
    <g fill="none" fill-rule="evenodd">
        <mask id="b" fill="#fff">
            <use xlink:href="#a"/>
        </mask>
        <use fill="#F5F6F7" xlink:href="#a"/>
        <path fill="#E6E9EB" d="M37.723 74.313c-14.27 9.372-23.96 27.457-23.96 48.18 0 0-.516 5.007 5.17 5.007h81.775c6.155 0 5.524-5.006 5.524-5.006 0-20.267-9.266-38.01-23.027-47.549a37.851 37.851 0 0 1-22.319 7.234 37.851 37.851 0 0 1-23.163-7.866zm23.64-1.813c-13.785 0-25-11.216-25-25.002s11.215-24.998 25-24.998 25 11.212 25 24.998c0 13.786-11.215 25.002-25 25.002z" mask="url(#b)"/>
    </g>
</svg>
