<svg xmlns="http://www.w3.org/2000/svg" width="26" height="26" viewBox="0 0 26 26">
    <g fill="none" fill-rule="evenodd">
        <path stroke="#EB3530" d="M9.362 12.2c-2.307 1.34-3.748 4.022-3.75 7.332v-.008a.422.422 0 0 0 .033.18c.039.085.106.13.317.13h13.41c.252 0 .338-.053.379-.14a.356.356 0 0 0 .029-.16l-.003-.051c0-3.155-1.345-5.767-3.529-7.15a5.424 5.424 0 0 1-6.886-.133zM9.32 7.84c0 2.027 1.603 3.672 3.567 3.672 1.963 0 3.567-1.645 3.567-3.672 0-2.028-1.604-3.672-3.567-3.672-1.964 0-3.567 1.644-3.567 3.672z"/>
        <circle cx="18.2" cy="18.301" r="4.5" fill="#FFF"/>
        <g stroke="#EB3530" stroke-linecap="round" stroke-linejoin="round">
            <path d="M16.32 16.437l3.978 3.977M20.484 16.251l-4.243 4.243"/>
        </g>
    </g>
</svg>
