<svg xmlns="http://www.w3.org/2000/svg" width="170" height="150" viewBox="0 0 170 150">
    <g fill="none" fill-rule="evenodd" opacity=".5" transform="translate(2 18)">
        <path fill="#7C7F87" fill-rule="nonzero" d="M99.4 27.3c3.3 13.5 2.9 35.9-55.5 3.5S.6 38.8 8.1 50.6s30.3 63.1 102.3 38.7 69.4-28 18.5-70.8C78-24.3 97.6 19.8 99.4 27.3z" opacity=".1"/>
        <g fill-rule="nonzero" transform="translate(116 15)">
            <path fill="#FFF" stroke="#7C7F87" stroke-linecap="round" stroke-linejoin="round" d="M.9 9.1H14v7.1H.9z"/>
            <path fill="#FFF" d="M33.3 50l-1.4-23.8c-.1-3.4-2.9-6.1-6.3-6.1h-2.4c-3.4 0-6.2 2.7-6.3 6.1L15.1 50s4.8.9 8.8.9c4.4 0 9.4-.9 9.4-.9z"/>
            <path fill="#FFF" stroke="#7C7F87" stroke-linecap="round" stroke-linejoin="round" d="M17.9 23.7c1-2.1 3.2-3.5 5.6-3.5h2.4c3.4 0 6.2 2.7 6.3 6.1l4 66.6c.6 6.6-2.2 5.7-3.4.5l-7.7-33.2M23.3 57l-8.4 35.9c-2.4 6.9-4.6 5.4-4.2-.6l5.2-64"/>
            <g fill="#BDC1C5" opacity=".5">
                <path d="M24.6 57.7l-8.4 35.9c-2.4 6.9-4.6 5.4-4.2-.6l5-65.9c.1-3.4 2.9-6.1 6.3-6.1h2.4c3.4 0 6.2 2.7 6.3 6.1l4 66.6c.6 6.6-2.2 5.7-3.4.5L24.9 61l-.3-3.3z"/>
                <path d="M33.5 50.8L32 27c-.1-3.4-2.9-6.1-6.3-6.1h-2.4c-3.4 0-6.2 2.7-6.3 6.1l-1.8 23.8s4.8.9 8.8.9c4.5 0 9.5-.9 9.5-.9z"/>
            </g>
            <g fill="#FFF" stroke="#7C7F87" stroke-linecap="round" stroke-linejoin="round" transform="translate(3)">
                <ellipse cx="19.9" cy="9.6" rx="7.2" ry="9"/>
                <path d="M12.4 19C6.7 12.7 1.2 8.4.2 9.3c-1 .9 2.8 6.8 8.5 13 5.7 6.3 9.2 12 12.2 9.7 3.3-2.5-2.8-6.7-8.5-13z"/>
            </g>
            <ellipse cx="24.1" cy="97.7" fill="#7C7F87" opacity=".15" rx="15.8" ry="1.2"/>
            <path fill="#7C7F87" d="M18.2 14.3h-1.7c-.1 0-.1 0-.1-.1v-1.6c0-.1 0-.1.1-.1h3.1c.1 0 .1 0 .1.1v.2c0 .8-.6 1.5-1.5 1.5z"/>
        </g>
        <path fill="#FFF" fill-rule="nonzero" stroke="#7C7F87" stroke-linecap="round" stroke-linejoin="round" d="M36.9 90.6h15.8v8.6H36.9z"/>
        <path stroke="#7C7F87" stroke-linecap="round" stroke-linejoin="round" d="M117.2 27.8c-31.2 3.3-4.1 71.4-64.5 67.1"/>
        <ellipse cx="44.9" cy="99.8" fill="#7C7F87" fill-rule="nonzero" opacity=".15" rx="10.5" ry="1"/>
    </g>
</svg>
