<svg xmlns="http://www.w3.org/2000/svg" xmlns:xlink="http://www.w3.org/1999/xlink" width="20" height="20" viewBox="0 0 20 20">
    <defs>
        <circle id="a" cx="11" cy="11" r="9.778"/>
    </defs>
    <g fill="none" fill-rule="evenodd">
        <path d="M-1-1h22v22H-1z"/>
        <g transform="translate(-1 -1)">
            <use fill="#EB3530" xlink:href="#a"/>
            <circle cx="11" cy="11" r="9.319" stroke="#EB3530" stroke-width=".917"/>
        </g>
        <path fill="#FFF" stroke="#FFF" stroke-width=".2" d="M5.104 10.38v2.105H4.5V7.63h1.617c.489 0 .862.118 1.12.354.258.236.386.578.386 1.028 0 .25-.06.466-.179.65-.12.185-.294.332-.523.441.245.087.422.228.53.423.107.194.16.435.16.722v.457c0 .152.016.287.046.408.03.12.084.218.16.293v.08h-.623a.562.562 0 0 1-.153-.333 2.994 2.994 0 0 1-.034-.454v-.444c0-.263-.07-.474-.212-.634a.719.719 0 0 0-.568-.24H5.104zm0-.518h.952c.341 0 .587-.07.738-.212.15-.141.225-.357.225-.646 0-.274-.073-.485-.22-.636-.146-.15-.373-.225-.682-.225H5.104v1.719zm6.21.37H9.269v1.74h2.36v.513H8.664v-4.86h2.93v.518H9.268v1.572h2.047v.517zm4.18.698l.006.02c.008.456-.14.838-.442 1.145-.303.307-.703.46-1.2.46a1.52 1.52 0 0 1-1.235-.584c-.318-.389-.477-.883-.477-1.482v-.864c0-.599.16-1.093.477-1.484a1.52 1.52 0 0 1 1.235-.585c.505 0 .907.146 1.206.438.299.293.444.68.436 1.164l-.006.02h-.58c0-.34-.092-.61-.277-.808-.184-.198-.443-.297-.779-.297-.337 0-.606.148-.807.444-.2.296-.3.663-.3 1.101v.871c0 .443.1.813.3 1.109.2.296.47.444.807.444.336 0 .595-.099.78-.296.184-.197.276-.469.276-.816h.58z"/>
    </g>
</svg>
