<svg xmlns="http://www.w3.org/2000/svg" width="32" height="32" viewBox="0 0 32 32">
    <g fill="none" fill-rule="evenodd">
        <rect width="32" height="32" fill="#E5F1FA" rx="16"/>
        <g fill="#0081B3" fill-rule="nonzero">
            <path d="M24.46 24.91l-.003-.035.002.035zm-16.718-.022v-.009.009zm16.623-.081c.043 0 .071.002.089.006l-.002-.027c0-3.66-1.499-6.691-3.938-8.366a7.113 7.113 0 0 1-8.577-.166c-2.582 1.63-4.19 4.743-4.19 8.532.003.014 5.542.02 16.618.02zm-8.029-8.065c1.57 0 3.005-.6 4.101-1.587 2.999 1.694 5.049 5.171 5.049 9.63 0 0 .128 1.056-1.121 1.056H7.763c-1.154 0-1.05-1.055-1.05-1.055 0-4.607 2.189-8.166 5.349-9.794a6.117 6.117 0 0 0 4.274 1.75zm-4-6.406c0 2.29 1.801 4.144 4 4.144s4.001-1.853 4.001-4.144c0-2.29-1.802-4.143-4-4.143-2.2 0-4.002 1.853-4.002 4.143zm-1.035 0c0-2.855 2.259-5.177 5.035-5.177 2.776 0 5.035 2.322 5.035 5.177 0 2.855-2.259 5.178-5.035 5.178-2.776 0-5.035-2.323-5.035-5.178zM6.159 13.69h4.127a.517.517 0 0 0 0-1.034H6.159a.517.517 0 0 0 0 1.034z"/>
            <path d="M7.705 11.053v4.137a.517.517 0 1 0 1.034 0v-4.137a.517.517 0 0 0-1.034 0z"/>
        </g>
    </g>
</svg>
