<svg xmlns="http://www.w3.org/2000/svg" width="170" height="150" viewBox="0 0 170 150">
    <g fill="none" fill-rule="evenodd" opacity=".5">
        <path fill="#7C7F87" fill-rule="nonzero" d="M101.5 42.7c3.3 13.6 3 36.2-55.9 3.5S2 54.3 9.6 66.1c7.6 11.8 30.5 63.6 103 39s69.9-28.2 18.6-71.3c-51.3-43.1-31.5 1.4-29.7 8.9z" opacity=".1"/>
        <g transform="translate(9 30)">
            <g fill-rule="nonzero">
                <ellipse cx="20.3" cy="10.1" fill="#FFF" stroke="#7C7F87" stroke-linecap="round" stroke-linejoin="round" rx="7.3" ry="9.2"/>
                <path fill="#FFF" stroke="#7C7F87" stroke-linecap="round" stroke-linejoin="round" d="M11.6 29L1.5 55.3c-1.8 4.9.3 6 2.8 1.2l6.1-13.4M30.7 40.2l6.8-27.4c1.2-5.1-1-5.9-2.9-.8l-4.4 14M20.8 60.6L12 98.7c-2.6 7.4-4.9 5.7-4.4-.7l5.3-70c.1-3.6 3.1-6.5 6.7-6.5H22c3.6 0 6.6 2.9 6.7 6.5l4.6 67.3c.6 7-2.4 6-3.6.5l-8.6-31.9"/>
                <g fill="#BDC1C5" opacity=".5">
                    <path d="M31.6 54l-1.5-25.3c-.1-3.7-3.1-6.5-6.7-6.5h-2.5c-3.6 0-6.6 2.9-6.7 6.5L12.3 54h19.3z"/>
                    <path d="M22.2 61.2l-8.9 38.1c-2.6 7.4-4.9 5.7-4.4-.7l5.3-70c.1-3.6 3.1-6.5 6.7-6.5h2.5c3.6 0 6.6 2.9 6.7 6.5l4.6 67.3c.6 7-2.4 6-3.6.5l-8.6-31.9-.3-3.3z"/>
                </g>
                <path fill="#FFF" stroke="#7C7F87" stroke-linecap="round" stroke-linejoin="round" d="M26.586 5.917l13.193-.428.233 7.196-13.193.428z"/>
            </g>
            <path fill="#FFF" fill-rule="nonzero" stroke="#7C7F87" stroke-linecap="round" stroke-linejoin="round" d="M110.1 9.4h13.2v7.2h-13.2z"/>
            <path stroke="#7C7F87" stroke-linecap="round" stroke-linejoin="round" d="M39.9 9.2s7-1.4 24 6 37.8-2.3 46-2.1"/>
            <path fill="#FFF" fill-rule="nonzero" d="M142.8 50.6l-1.5-24c-.1-3.4-2.9-6.1-6.4-6.1h-2.4c-3.4 0-6.2 2.7-6.4 6.1l-1.8 24s4.9.9 8.9.9c4.6 0 9.6-.9 9.6-.9z"/>
            <path fill="#FFF" fill-rule="nonzero" stroke="#7C7F87" stroke-linecap="round" stroke-linejoin="round" d="M127.2 24.2c1.1-2.1 3.2-3.5 5.7-3.5h2.4c3.4 0 6.2 2.7 6.4 6.1l4.1 67c.6 6.6-2.3 5.7-3.4.5l-7.8-33.5M132.7 57.7l-8.4 36.1c-2.4 7-4.6 5.4-4.2-.6l5.3-64.5"/>
            <g fill="#BDC1C5" fill-rule="nonzero" opacity=".5">
                <path d="M134 58.4l-8.4 36.1c-2.4 7-4.6 5.4-4.2-.6l5-66.4c.1-3.4 2.9-6.1 6.4-6.1h2.4c3.4 0 6.2 2.7 6.4 6.1l4.1 67c.6 6.6-2.3 5.7-3.4.5l-7.8-33.5-.5-3.1z"/>
                <path d="M142.9 51.5l-1.5-24c-.1-3.4-2.9-6.1-6.4-6.1h-2.4c-3.4 0-6.2 2.7-6.4 6.1l-1.8 24s4.9.9 8.9.9c4.6 0 9.6-.9 9.6-.9z"/>
            </g>
            <g fill="#FFF" fill-rule="nonzero" stroke="#7C7F87" stroke-linecap="round" stroke-linejoin="round" transform="translate(112)">
                <ellipse cx="20.3" cy="10" rx="7.2" ry="9.1"/>
                <path d="M12.7 19.5C6.9 13.2 1.4 8.8.4 9.7c-1 .9 2.8 6.8 8.6 13.1s9.3 12.1 12.3 9.8c3.3-2.6-2.8-6.8-8.6-13.1z"/>
            </g>
            <ellipse cx="22.001" cy="102.398" fill="#7C7F87" fill-rule="nonzero" opacity=".15" rx="15.9" ry="1.2" transform="rotate(-7.06 22 102.398)"/>
            <ellipse cx="133.5" cy="98.7" fill="#7C7F87" fill-rule="nonzero" opacity=".15" rx="15.9" ry="1.2"/>
            <path fill="#7C7F87" fill-rule="nonzero" d="M127.6 14.7h-1.7c-.1 0-.1-.1-.1-.1V13c0-.1.1-.1.1-.1h3.1c.1 0 .1.1.1.1v.2c0 .8-.7 1.5-1.5 1.5z"/>
        </g>
    </g>
</svg>
