<?xml version="1.0" encoding="UTF-8"?>
<svg width="26px" height="26px" viewBox="0 0 26 26" version="1.1" xmlns="http://www.w3.org/2000/svg" xmlns:xlink="http://www.w3.org/1999/xlink">
    <!-- Generator: sketchtool 48.2 (47327) - http://www.bohemiancoding.com/sketch -->
    <title>37EE1EA4-D750-40A6-9B8C-1B4AA2948FF8</title>
    <desc>Created with sketchtool.</desc>
    <defs></defs>
    <g id="Event-detail-screen----past-event" stroke="none" stroke-width="1" fill="none" fill-rule="evenodd" transform="translate(-1998.000000, -266.000000)">
        <g id="Event-detail" transform="translate(1825.000000, 187.000000)">
            <g id="icon_recurring_event" transform="translate(173.000000, 79.000000)">
                <g>
                    <rect id="26x26" x="0" y="0" width="26" height="26"></rect>
                    <path d="M23,13 C23,7.4771525 18.5228475,3 13,3 C9.0546853,3 5.64300305,5.28475211 4.01588732,8.60332224 M3,13 C3,14.0644444 3.16631129,15.0900447 3.47436653,16.0522336 C4.76464944,20.0823416 8.5415969,23 13,23 C17.0590533,23 20.5532628,20.5816158 22.1203566,17.107119" id="Oval-9" stroke="#7E858B" stroke-width="1.3" stroke-linecap="round"></path>
                    <polyline id="Path-11" stroke="#7E858B" stroke-width="1.2" stroke-linecap="round" stroke-linejoin="round" points="3.44817778 3.46666667 3.44817778 8.66666667 8.64817778 8.66666667"></polyline>
                    <polyline id="Path-11" stroke="#7E858B" stroke-width="1.2" stroke-linecap="round" stroke-linejoin="round" transform="translate(20.100000, 19.600000) rotate(-180.000000) translate(-20.100000, -19.600000) " points="17.5 17 17.5 22.2 22.7 22.2"></polyline>
                </g>
            </g>
        </g>
    </g>
</svg>