<svg xmlns="http://www.w3.org/2000/svg" width="32" height="32" viewBox="0 0 32 32">
    <g fill="none" fill-rule="evenodd">
        <circle cx="16" cy="16" r="16" fill="#039A0F"/>
        <path stroke="#FFF" stroke-width="1.143" d="M17.74 19.417s1.349-.772 1.702-.958c.352-.186.717-.233.94-.098.335.205 3.153 2.08 3.39 2.246.238.167.352.642.026 1.107-.325.465-1.824 2.306-2.46 2.286-.636-.02-3.282-.079-8.27-5.07C8.08 13.943 8.02 11.297 8 10.66c-.02-.637 1.82-2.136 2.285-2.462.466-.325.942-.202 1.107.026.188.26 2.041 3.07 2.245 3.392.14.22.089.587-.098.94-.185.353-.958 1.703-.958 1.703s.545.929 2.387 2.77c1.842 1.843 2.771 2.388 2.771 2.388z"/>
    </g>
</svg>
