<svg xmlns="http://www.w3.org/2000/svg" width="170" height="150" viewBox="0 0 170 150">
    <g fill="none" fill-rule="evenodd" opacity=".5">
        <path fill="#7C7F87" fill-rule="nonzero" d="M91.1 46.1c-29.7 31-45.2 2.6-68.1-4.9C.1 33.7-3.2 55.1 12.4 81.4 28 107.7 61.6 136 116.6 121.5s67.3-35.3 26.7-65.5C88.9 15.5 98 38.9 91.1 46.1z" opacity=".1"/>
        <g transform="translate(13)">
            <path fill="#FFF" fill-rule="nonzero" d="M106.1 12.3L72.7 16c-7.2.8-12.3 7.3-11.5 14.4l2.5 22.7c.8 7.2 7.3 12.3 14.4 11.5l22.3-2.5 12.3 8.5c1.5 1 3.5-.2 3.3-2l-1-8.7c5.3-2.2 8.7-7.6 8-13.5l-2.5-22.7c-.8-7.1-7.2-12.2-14.4-11.4z"/>
            <g fill="#484A4C" fill-rule="nonzero" opacity=".1">
                <path d="M27.7 2.8l33.5 2.9c7.2.6 12.5 6.9 11.9 14.1l-1.9 22.7c-.6 7.2-7 12.5-14.2 11.9l-22.3-1.9-12.1 8.8c-1.5 1.1-3.5-.1-3.3-1.9l.7-8.7c-5.3-2-8.9-7.4-8.4-13.3l1.9-22.7c.7-7.2 7-12.6 14.2-11.9z"/>
                <path d="M23.8 13.3l38.9 3.3c.5 0 1-.3 1-.8v-.4c0-.5-.3-1-.8-1L24 11c-.5 0-1 .3-1 .8v.4c-.1.6.3 1 .8 1.1zM23.2 20.5l21.7 1.9c.5 0 1-.3 1-.8v-.4c0-.5-.3-1-.8-1l-21.7-1.9c-.5 0-1 .3-1 .8v.4c-.1.5.3 1 .8 1zM21.9 35l31.6 2.7c.5 0 1-.3 1-.8v-.4c0-.5-.3-1-.8-1l-31.6-2.7c-.5 0-1 .3-1 .8v.4c0 .5.3.9.8 1zM22.6 27.7l26 2.2c.5 0 1-.3 1-.8v-.4c0-.5-.3-1-.8-1l-26-2.2c-.5 0-1 .3-1 .8v.4c-.1.5.2 1 .8 1z"/>
                <g>
                    <path d="M24.5 12.7L63.3 16c.5 0 1-.3 1-.8v-.4c0-.5-.3-1-.8-1l-38.9-3.3c-.5 0-1 .3-1 .8v.4c0 .5.4 1 .9 1zM23.9 19.9l21.7 1.9c.5 0 1-.3 1-.8v-.4c0-.5-.3-1-.8-1L24 17.7c-.5 0-1 .3-1 .8v.4c0 .5.3 1 .9 1zM22.6 34.4l31.6 2.7c.5 0 1-.3 1-.8v-.4c0-.5-.3-1-.8-1l-31.6-2.7c-.5 0-1 .3-1 .8v.4c-.1.5.3.9.8 1zM23.2 27.2l26 2.2c.5 0 1-.3 1-.8v-.4c0-.5-.3-1-.8-1l-26-2.2c-.5 0-1 .3-1 .8v.4c-.1.5.3.9.8 1z"/>
                </g>
            </g>
            <path stroke="#7C7F87" stroke-linecap="round" stroke-linejoin="round" d="M106.1 12.3L72.7 16c-7.2.8-12.3 7.3-11.5 14.4l2.5 22.7c.8 7.2 7.3 12.3 14.4 11.5l22.3-2.5 12.3 8.5c1.5 1 3.5-.2 3.3-2l-1-8.7c5.3-2.2 8.7-7.6 8-13.5l-2.5-22.7c-.8-7.1-7.2-12.2-14.4-11.4z"/>
            <path fill="#BDC1C5" fill-rule="nonzero" d="M73.2 29.1l33.1-4.1c.5-.1.9-.5.8-1v-.4c-.1-.5-.5-.9-1-.8L73 26.9c-.5.1-.9.5-.8 1v.4c0 .5.4.8 1 .8zM74 36.3l13.9-1.7c.5-.1.9-.5.8-1v-.4c-.1-.5-.5-.9-1-.8l-13.9 1.7c-.5.1-.9.5-.8 1v.4c.1.5.5.9 1 .8zM75.8 50.7l16.8-2.1c.5-.1.9-.5.8-1v-.4c-.1-.5-.5-.9-1-.8l-16.8 2.1c-.5.1-.9.5-.8 1v.4c0 .5.5.9 1 .8zM74.9 43.5l25.9-3.2c.5-.1.9-.5.8-1v-.4c-.1-.5-.5-.9-1-.8l-25.9 3.2c-.5.1-.9.5-.8 1v.4c.1.5.5.9 1 .8z"/>
            <g fill-rule="nonzero">
                <path fill="#FFF" stroke="#7C7F87" stroke-linecap="round" stroke-linejoin="round" d="M24.1.5l33.5 2.9c7.2.6 12.5 6.9 11.9 14.1l-1.9 22.7c-.6 7.2-6.9 12.5-14.1 11.9l-22.3-1.9L19 59.1c-1.5 1.1-3.5-.1-3.3-1.9l.7-8.7c-5.3-2-8.9-7.4-8.4-13.3l1.9-22.7c.7-7.3 7-12.6 14.2-12z"/>
                <g fill="#BDC1C5">
                    <path d="M20.6 12.4l38.9 3.3c.5 0 1-.3 1-.8v-.4c0-.5-.3-1-.8-1l-38.9-3.3c-.5 0-1 .3-1 .8v.4c-.1.5.3.9.8 1zM20 19.6l21.7 1.9c.5 0 1-.3 1-.8v-.4c0-.5-.3-1-.8-1l-21.7-1.9c-.5 0-1 .3-1 .8v.4c-.1.5.3 1 .8 1zM18.7 34.1l31.6 2.7c.5 0 1-.3 1-.8v-.4c0-.5-.3-1-.8-1l-31.6-2.7c-.5 0-1 .3-1 .8v.4c0 .5.3.9.8 1zM19.4 26.9l26 2.2c.5 0 1-.3 1-.8v-.4c0-.5-.3-1-.8-1l-26-2.2c-.5 0-1 .3-1 .8v.4c-.1.5.3.9.8 1z"/>
                </g>
            </g>
            <g fill-rule="nonzero">
                <path fill="#FFF" stroke="#7C7F87" stroke-linecap="round" stroke-linejoin="round" d="M110 101.6c-1.6 6.4-2.7 11.6-1.6 11.9 1.1.3 2.6-4.8 4.3-11.2 1.6-6.4 3.7-11.4 1.6-11.9-2-.5-2.7 4.8-4.3 11.2z"/>
                <g transform="translate(108 73)">
                    <ellipse cx="9.7" cy="6.8" fill="#FFF" stroke="#7C7F87" stroke-linecap="round" stroke-linejoin="round" rx="5.1" ry="6.4"/>
                    <path fill="#FFF" stroke="#7C7F87" stroke-linecap="round" stroke-linejoin="round" d="M10.1 42L3.2 65.7c-1.8 5.1-3.4 4-3.1-.5l4.4-46c.1-2.5 2.2-4.5 4.7-4.5h1.7c2.5 0 4.6 2 4.7 4.5l3 48.5c.4 4.9-1.7 4.2-2.5.3l-5.7-23.8"/>
                    <g fill="#BDC1C5" opacity=".5">
                        <path d="M11 42.5L3.6 65.8c-1.8 5.1-3.4 4-3.1-.5l4.9-45.6c.1-2.5 2.2-4.5 4.7-4.5h1.7c2.5 0 4.6 2 4.7 4.5l2.8 48.1c.4 4.9-1.7 4.2-2.5.3l-5.5-23.4-.3-2.2z"/>
                        <path d="M17.6 37.4l-1.1-17.7c-.1-2.5-2.2-4.5-4.7-4.5h-1.7c-2.5 0-4.6 2-4.7 4.5L3.5 37.4s2.6.7 6.5.7c3.2 0 7.6-.7 7.6-.7z"/>
                    </g>
                </g>
                <path fill="#FFF" stroke="#7C7F87" stroke-linecap="round" stroke-linejoin="round" d="M123.6 101.5c1.1 6.5 2.1 11.7 3.3 11.6 1.1-.1.5-5.5-.6-12s-1.2-11.9-3.3-11.6c-1.9.3-.4 5.5.6 12z"/>
            </g>
            <g fill-rule="nonzero" transform="translate(0 62)">
                <ellipse cx="16" cy="8.4" fill="#FFF" stroke="#7C7F87" stroke-linecap="round" stroke-linejoin="round" rx="5.9" ry="7.5"/>
                <path fill="#FFF" stroke="#7C7F87" stroke-linecap="round" stroke-linejoin="round" d="M9 22.5L.8 44c-1.5 4 .3 4.9 2.3.9L8 34M24.6 21.9l8.2 21.5c1.5 4-.3 4.9-2.3.9l-4.9-10.9M16.5 49.5L9.3 80.6c-1.4 5.9-4.3 4.8-3.6-.5L9.9 23c.1-2.9 2.5-5.3 5.5-5.3h2c2.9 0 5.4 2.3 5.5 5.3L27 82.8c.5 5-2.4 5.1-3.4.6l-6.8-31.2"/>
                <g fill="#BDC1C5" opacity=".5">
                    <path d="M25.3 44.2L24 23.5c-.1-2.9-2.5-5.3-5.5-5.3h-2c-2.9 0-5.4 2.3-5.5 5.3L9.4 44.1h15.9v.1z"/>
                    <path d="M17.6 50.1l-7.2 31.1c-2.1 6-4 4.7-3.6-.5l4.3-57.1c.1-2.9 2.5-5.3 5.5-5.3h2c2.9 0 5.4 2.3 5.5 5.3l3.5 59.1c.5 5.7-1.9 4.9-3 .4l-6.7-30.3-.3-2.7z"/>
                </g>
            </g>
            <ellipse cx="16.708" cy="147.771" fill="#7C7F87" fill-rule="nonzero" opacity=".15" rx="1" ry="13.5" transform="rotate(-85.933 16.708 147.771)"/>
            <ellipse cx="116.479" cy="143.643" fill="#7C7F87" fill-rule="nonzero" opacity=".15" rx="1" ry="13.5" transform="rotate(-85.897 116.48 143.643)"/>
        </g>
    </g>
</svg>
