<svg xmlns="http://www.w3.org/2000/svg" xmlns:xlink="http://www.w3.org/1999/xlink" width="32" height="32" viewBox="0 0 32 32">
    <defs>
        <path id="a" d="M0 9.158l4.051-3.912-1.099-1.138L0 6.958V0h10.392v10.161H0V9.158z"/>
    </defs>
    <g fill="none" fill-rule="evenodd">
        <rect width="32" height="32" rx="16"/>
        <g transform="translate(11.256 13.037)">
            <mask id="b" fill="#fff">
                <use xlink:href="#a"/>
            </mask>
            <path fill="#FF7300" fill-rule="nonzero" d="M9.394.54v4.54c0 .117-.017.339-.067.63a4.955 4.955 0 0 1-.465 1.427C8.212 8.402 7.059 9.15 5.196 9.15c-1.862 0-3.015-.748-3.665-2.013a4.955 4.955 0 0 1-.466-1.427 4.079 4.079 0 0 1-.066-.63V.54A.504.504 0 1 0-.01.54v4.54c0 .17.02.449.08.8.1.584.28 1.168.563 1.717.819 1.593 2.311 2.56 4.562 2.56 2.251 0 3.743-.967 4.562-2.56.283-.55.463-1.133.563-1.717.06-.351.08-.63.08-.8V.54a.504.504 0 0 0-1.007 0z" mask="url(#b)"/>
        </g>
        <path fill="#FF7300" fill-rule="nonzero" d="M15.974 22.69v3.303h1.008V22.69z"/>
        <path fill="#FF7300" fill-rule="nonzero" d="M13.978 26.163h4.949a.504.504 0 0 0 0-1.008h-4.949a.504.504 0 1 0 0 1.008zM10.372 20.854L22.382 9.09a.504.504 0 1 0-.705-.72L9.667 20.134a.504.504 0 0 0 .705.72z"/>
        <path fill="#FF7300" d="M19.67 11.772l-6.434 6.192V8.641a3.223 3.223 0 0 1 3.216-3.225A3.218 3.218 0 0 1 19.67 8.64v3.13zm0 1.983v4.186a3.223 3.223 0 0 1-3.218 3.225 3.21 3.21 0 0 1-2.71-1.485l5.927-5.926z"/>
    </g>
</svg>
