<svg xmlns="http://www.w3.org/2000/svg" xmlns:xlink="http://www.w3.org/1999/xlink" width="32" height="32" viewBox="0 0 32 32">
    <defs>
        <path id="a" d="M0 9.158l4.051-3.912-1.099-1.138L0 6.958V0h10.392v10.161H0V9.158z"/>
    </defs>
    <g fill="none" fill-rule="evenodd">
        <g transform="translate(11.256 13.037)">
            <mask id="b" fill="#fff">
                <use xlink:href="#a"/>
            </mask>
            <path fill="#484A4C" fill-rule="nonzero" d="M9.394.54v4.54c0 .117-.017.339-.067.63a4.955 4.955 0 0 1-.465 1.427C8.212 8.402 7.059 9.15 5.196 9.15c-1.862 0-3.015-.748-3.665-2.013a4.955 4.955 0 0 1-.466-1.427 4.079 4.079 0 0 1-.066-.63V.54A.504.504 0 1 0-.01.54v4.54c0 .17.02.449.08.8.1.584.28 1.168.563 1.717.819 1.593 2.311 2.56 4.562 2.56 2.251 0 3.743-.967 4.562-2.56.283-.55.463-1.133.563-1.717.06-.351.08-.63.08-.8V.54a.504.504 0 0 0-1.007 0z" mask="url(#b)"/>
        </g>
        <path fill="#484A4C" fill-rule="nonzero" d="M15.974 22.69v3.303h1.008V22.69z"/>
        <path fill="#484A4C" fill-rule="nonzero" d="M13.978 26.163h4.949a.504.504 0 0 0 0-1.008h-4.949a.504.504 0 1 0 0 1.008zM10.372 20.854L22.382 9.09a.504.504 0 1 0-.705-.72L9.667 20.134a.504.504 0 0 0 .705.72z"/>
        <path fill="#484A4C" fill-rule="nonzero" d="M18.97 11.046l-.309.726v-.429l.31-.297zm-.309-2.405a2.21 2.21 0 0 0-2.209-2.218 2.216 2.216 0 0 0-2.209 2.218v6.955l2.536-2.44 1.882-2.008V8.64zm1.008 1.431v1.7l-.948.913v-.127l-.06.064-.639-.664.64-.615v-.195l1.007-1.076zm-.948 2.486h-1.008v1.076l-.199.212-4.278 4.118V8.641a3.223 3.223 0 0 1 3.216-3.225A3.218 3.218 0 0 1 19.67 8.64v3.13l-.882.85-.066-.063zm-4.266 7.836l.137-1.256c.145.228.328.424.538.581l-.675.675zm1.997-.236c.592 0 1.13-.235 1.527-.616a2.244 2.244 0 0 0 .742-1.673v-3.166l.653-.653.295.123v.674l-.236.569.236-.236v2.76c0 .921-.385 1.751-1.003 2.34a3.236 3.236 0 0 1-2.188.844 3.25 3.25 0 0 1-2.716-1.462l.735-.734c.16.301.388.562.663.761l-.03.03a2.2 2.2 0 0 0 1.322.44zm3.217-2.217a3.223 3.223 0 0 1-3.217 3.225 3.21 3.21 0 0 1-2.71-1.485l.755-.753a2.242 2.242 0 0 0 1.981 1.188 2.24 2.24 0 0 0 2.243-2.247v-3.166l.948-.948v4.186z"/>
    </g>
</svg>
