<svg xmlns="http://www.w3.org/2000/svg" width="32" height="32" viewBox="0 0 32 32">
    <g fill="none" fill-rule="evenodd">
        <circle cx="16" cy="16" r="15" fill="#EB3530"/>
        <path fill="#FFF" d="M8.727 13.818c.402 0 .728.326.728.727v2.91a.727.727 0 0 1-1.455 0v-2.91c0-.401.326-.727.727-.727zm8.728-.727c.401 0 .727.326.727.727v4.364a.727.727 0 0 1-1.455 0v-4.364c0-.401.326-.727.728-.727zm2.909-2.182c.401 0 .727.326.727.727v8.728a.727.727 0 0 1-1.455 0v-8.728c0-.401.326-.727.728-.727zm2.909 3.636c.401 0 .727.326.727.728v1.454a.727.727 0 1 1-1.455 0v-1.454c0-.402.326-.728.728-.728zm-11.637-2.181c.402 0 .728.325.728.727v5.818a.727.727 0 0 1-1.455 0v-5.818c0-.402.326-.727.727-.727zM14.546 8c.401 0 .727.326.727.727v14.546a.727.727 0 0 1-1.455 0V8.727c0-.401.326-.727.727-.727z"/>
    </g>
</svg>
