<svg xmlns="http://www.w3.org/2000/svg" width="20" height="20" viewBox="0 0 20 20">
    <g fill="none" fill-rule="evenodd">
        <path fill="#F9F9F9" d="M5.145 2.158h1v1.494h-1zM15.602 2.158h1v1.494h-1z"/>
        <path fill="#0074CD" d="M5.272.79v2.988h-1V.79zM15.729.79v2.988h-1V.79z"/>
        <path stroke="#0074CD" d="M5.145 2.53H1.037v13.838c0 2.968 2.604 2.595 2.604 2.595H16.35c2.987 0 2.614-2.61 2.614-2.61V2.532h-2.614M5.892 2.5h9.71"/>
        <path stroke="#0074CD" d="M3.404 7.886v2.734H6.14V7.886H3.404zm0 5.228v2.735H6.14v-2.735H3.404zm5.229-5.228v2.734h2.734V7.886H8.633zm0 5.228v2.735h2.734v-2.735H8.633zm5.228-5.228v2.734h2.735V7.886H13.86zm0 5.228v2.735h2.735v-2.735H13.86z"/>
        <path fill="#0074CD" fill-rule="nonzero" d="M16.596 5.145h-.5v.747h1v-.373.373H3.404h.5v-.747h-1v.374-.374h13.692zm-13.692 0h14.192v.747H2.904v-.747z"/>
    </g>
</svg>
