<svg xmlns="http://www.w3.org/2000/svg" width="170" height="150" viewBox="0 0 170 150">
    <g fill="none" fill-rule="evenodd" opacity=".5" transform="translate(1 9)">
        <path fill="#7C7F87" fill-rule="nonzero" d="M158.3 38.5c2.9 19.1-28.4 32.4-43.3 42.6-13.6 9.3-23.6 37.2-43.7 37.2-42 0-54.7-33.7-60.6-64.1-3-15.4-6.8-38.1 6.9-48.1 12-8.8 42-.8 64.5 4.6 40.9 9.8 71.3-5.2 76.2 27.8z" opacity=".1"/>
        <path fill="#E5E5E5" fill-rule="nonzero" d="M134.3 94.2L55 106.3c-1.3.2-2.4-.7-2.6-1.9l-5-32.6c-.2-1.3 37.4-36.3 37.4-36.3s46.3 22.2 46.5 23.4l5 32.6c.2 1.3-.7 2.5-2 2.7z"/>
        <path stroke="#7C7F87" d="M134.3 94.2L55 106.3c-1.3.2-2.4-.7-2.6-1.9l-5-32.6c-.2-1.3 37.4-36.3 37.4-36.3s46.3 22.2 46.5 23.4l5 32.6c.2 1.3-.7 2.5-2 2.7z"/>
        <path fill="#F2F2F2" fill-rule="nonzero" d="M124.5 81.3l-62.7 3.1c-2.3.1-4.2-1.6-4.3-3.9l-2.2-44.1c-.1-2.3 1.6-4.2 3.9-4.3l62.7-3.1c2.3-.1 4.2 1.6 4.3 3.9l2.2 44.1c.1 2.3-1.6 4.2-3.9 4.3z"/>
        <path stroke="#7C7F87" d="M124.5 81.3l-62.7 3.1c-2.3.1-4.2-1.6-4.3-3.9l-2.2-44.1c-.1-2.3 1.6-4.2 3.9-4.3l62.7-3.1c2.3-.1 4.2 1.6 4.3 3.9l2.2 44.1c.1 2.3-1.6 4.2-3.9 4.3z"/>
        <path fill="#F7F7F7" fill-rule="nonzero" d="M122.1 75.9L60.8 89.7c-2.2.5-4.4-.9-4.9-3.1l-9.7-43.1c-.5-2.2.9-4.4 3.1-4.9l61.2-13.8c2.2-.5 4.4.9 4.9 3.1l9.7 43.1c.6 2.2-.8 4.4-3 4.9z"/>
        <path stroke="#7C7F87" d="M122.1 75.9L60.8 89.7c-2.2.5-4.4-.9-4.9-3.1l-9.7-43.1c-.5-2.2.9-4.4 3.1-4.9l61.2-13.8c2.2-.5 4.4.9 4.9 3.1l9.7 43.1c.6 2.2-.8 4.4-3 4.9z"/>
        <path fill="#FFF" fill-rule="nonzero" d="M123.2 78.9l-62 9.5c-2.3.3-4.4-1.2-4.7-3.5l-6.7-43.7c-.3-2.3 1.2-4.4 3.5-4.7l62-9.5c2.3-.3 4.4 1.2 4.7 3.5l6.7 43.7c.3 2.3-1.3 4.4-3.5 4.7z"/>
        <path stroke="#7C7F87" stroke-linecap="round" stroke-linejoin="round" d="M123.2 78.9l-62 9.5c-2.3.3-4.4-1.2-4.7-3.5l-6.7-43.7c-.3-2.3 1.2-4.4 3.5-4.7l62-9.5c2.3-.3 4.4 1.2 4.7 3.5l6.7 43.7c.3 2.3-1.3 4.4-3.5 4.7z"/>
        <g fill="#BDC1C5" fill-rule="nonzero" opacity=".9">
            <path d="M63.9 56.6c-.6.1-1.1-.3-1.2-.8l-.5-3.5c-.1-.5.3-1.1.8-1.1.5-.1 1.1.3 1.1.8l.5 3.5c.2.5-.2 1-.7 1.1zM68 57.6c-.6.1-1.1-.3-1.2-.8l-1-6.6c-.1-.5.3-1.1.8-1.1.5-.1 1.1.3 1.1.8l1 6.6c.2.5-.2 1-.7 1.1zM72.3 60.3c-.6.1-1.1-.3-1.2-.8l-2-13.2c-.1-.5.3-1.1.8-1.1.5-.1 1.1.3 1.1.8l2 13.2c.3.5-.1 1-.7 1.1zM76.8 63.4c-.6.1-1.1-.3-1.2-.8L72.4 42c-.1-.5.3-1.1.8-1.1.5-.1 1.1.3 1.1.8l3.1 20.5c.3.6-.1 1.1-.6 1.2zM79.3 54.3c-.6.1-1.1-.3-1.2-.8l-.5-3.5c-.1-.5.3-1.1.8-1.1.5-.1 1.1.3 1.1.8l.5 3.5c.2.5-.2 1-.7 1.1zM83.5 56.3c-.6.1-1.1-.3-1.2-.8L81 46.8c-.1-.5.3-1.1.8-1.1.5-.1 1.1.3 1.1.8l1.3 8.7c.3.5-.1 1-.7 1.1zM87.9 58.7c-.6.1-1.1-.3-1.2-.8l-2.3-14.8c-.1-.5.3-1.1.8-1.1.5-.1 1.1.3 1.1.8l2.3 14.8c.2.5-.2 1.1-.7 1.1zM103 54.7c-.6.1-1.1-.3-1.2-.8L100 42.4c-.1-.5.3-1.1.8-1.1.5-.1 1.1.3 1.1.8l1.8 11.5c.2.5-.2 1.1-.7 1.1zM91 53.7c-.6.1-1.1-.3-1.2-.8L89 47c-.1-.5.3-1.1.8-1.1.5-.1 1.1.3 1.1.8l.9 5.8c.1.6-.2 1.1-.8 1.2zM94.7 51.9c-.6.1-1.1-.3-1.2-.8l-.5-3.5c-.1-.5.3-1.1.8-1.1.5-.1 1.1.3 1.1.8l.5 3.5c.2.5-.2 1-.7 1.1zM106.2 50.1c-.6.1-1.1-.3-1.2-.8l-.5-3.5c-.1-.5.3-1.1.8-1.1.5-.1 1.1.3 1.1.8l.5 3.5c.3.5-.1 1.1-.7 1.1zM98.4 50.1c-.6.1-1.1-.3-1.2-.8l-.2-1c-.1-.5.3-1.1.8-1.1.5-.1 1.1.3 1.1.8l.2 1c.2.5-.2 1-.7 1.1zM109.9 48.3c-.6.1-1.1-.3-1.2-.8l-.2-1c-.1-.5.3-1.1.8-1.1.5-.1 1.1.3 1.1.8l.2 1c.2.5-.2 1.1-.7 1.1z"/>
        </g>
        <path fill="#FFF" fill-rule="nonzero" stroke="#7C7F87" stroke-linecap="round" stroke-linejoin="round" d="M89.1 73.2c.7-.8 1.8-1 2.7-.4L114 86.2l21.3 13c.7.4.6 1.7-.2 1.8l-39.4 6-39.4 6c-.8.1-1.3-1-.7-1.7L72 92.6l17.1-19.4z"/>
        <path fill="#FFF" fill-rule="nonzero" stroke="#7C7F87" stroke-linecap="round" stroke-linejoin="round" d="M47.7 74.1l41.4-.9L58 112.1c-.8 1-4.2 1.5-4.5-.8l-5.8-37.2zM131.6 61.2L91.9 72.7l41.4 28.1c.9.4 4.5.1 4.2-1.9l-5.9-37.7z"/>
        <ellipse cx="99.2" cy="129.6" fill="#7C7F87" fill-rule="nonzero" opacity=".15" rx="46.6" ry="1.5"/>
        <g fill-rule="nonzero">
            <g fill="#FFF" stroke="#7C7F87">
                <path d="M147.2 12.3l19.1 7.3c.8.3 1.2 1.2.9 2l-3.1 8c-.3.8-1.2 1.2-2 .9L143 23.3c-.8-.3-1.2-1.2-.9-2l3.1-8c.3-.9 1.2-1.3 2-1z"/>
                <path stroke-linecap="round" stroke-linejoin="round" d="M146 14l8 8.9s.1.1.2.1l11.9-1.3"/>
            </g>
            <path fill="#FFF" stroke="#7C7F87" stroke-linecap="round" stroke-linejoin="round" d="M147 14.1l2.1-5.4c.3-.7 1.1-1.1 1.8-.8l15.6 6c.7.3 1.1 1.1.8 1.8l-2.1 5.4"/>
            <g fill="#BDC1C5" opacity=".9">
                <path d="M150.2 14c-.2-.1-.3-.3-.2-.4l.4-1.1c.1-.2.3-.3.4-.2.2.1.3.3.2.4l-.4 1.1c-.1.2-.3.3-.4.2zM151.2 15c-.2-.1-.3-.3-.2-.4l.8-2.1c.1-.2.3-.3.4-.2.2.1.3.3.2.4l-.8 2.1c-.1.2-.2.3-.4.2zM152 16.5c-.2-.1-.3-.3-.2-.4l1.6-4.2c.1-.2.3-.3.4-.2.2.1.3.3.2.4l-1.6 4.2c0 .2-.2.3-.4.2zM152.8 18.1c-.2-.1-.3-.3-.2-.4l2.5-6.5c.1-.2.3-.3.4-.2.2.1.3.3.2.4l-2.5 6.5c-.1.2-.3.3-.4.2zM155 15.9c-.2-.1-.3-.3-.2-.4l.4-1.1c.1-.2.3-.3.4-.2.2.1.3.3.2.4l-.4 1.1c0 .2-.2.3-.4.2zM155.9 17.2c-.2-.1-.3-.3-.2-.4l1-2.7c.1-.2.3-.3.4-.2.2.1.3.3.2.4l-1 2.7c0 .2-.2.3-.4.2zM156.8 18.6c-.2-.1-.3-.3-.2-.4l1.8-4.7c.1-.2.3-.3.4-.2.2.1.3.3.2.4l-1.8 4.7c-.1.2-.3.3-.4.2zM161.8 20c-.2-.1-.3-.3-.2-.4L163 16c.1-.2.3-.3.4-.2.2.1.3.3.2.4l-1.4 3.6c0 .1-.2.2-.4.2zM158.5 17.7c-.2-.1-.3-.3-.2-.4l.7-1.8c.1-.2.3-.3.4-.2.2.1.3.3.2.4l-.7 1.8c0 .1-.2.2-.4.2zM159.9 17.8c-.2-.1-.3-.3-.2-.4l.4-1.1c.1-.2.3-.3.4-.2.2.1.3.3.2.4l-.4 1.1c-.1.1-.3.2-.4.2zM163.5 19.2c-.2-.1-.3-.3-.2-.4l.4-1.1c.1-.2.3-.3.4-.2.2.1.3.3.2.4l-.4 1.1c0 .1-.2.2-.4.2zM161.2 17.8c-.2-.1-.3-.3-.2-.4l.1-.3c.1-.2.3-.3.4-.2.2.1.3.3.2.4l-.1.3c0 .2-.2.3-.4.2z"/>
            </g>
        </g>
        <g fill-rule="nonzero">
            <g fill="#FFF" stroke="#7C7F87">
                <path d="M1.8 8.4l14.1-4.8c.8-.3 1.7.2 2 1l1.9 5.5c.3.8-.2 1.7-1 2L4.7 16.8c-.8.3-1.7-.2-2-1L.8 10.3c-.2-.8.2-1.6 1-1.9z"/>
                <path stroke-linecap="round" stroke-linejoin="round" d="M1.6 10.1l9 1.3h.1l6.4-6.5"/>
            </g>
            <path fill="#FFF" stroke="#7C7F87" stroke-linecap="round" stroke-linejoin="round" d="M2.2 9.7L.8 5.5c-.2-.5.1-1.1.7-1.3L13.6.1c.5-.2 1.1.1 1.3.7L16.3 5"/>
            <g fill="#BDC1C5" opacity=".9">
                <path d="M4 8.1c-.1 0-.3 0-.3-.2l-.3-.8c0-.1 0-.3.2-.3.1 0 .3 0 .3.2l.3.8c0 .1 0 .3-.2.3zM5.1 8.2c-.1 0-.3 0-.3-.2l-.5-1.6c0-.1 0-.3.2-.3.1 0 .3 0 .3.2l.5 1.6c0 .1-.1.2-.2.3zM6.3 8.7c-.1 0-.3 0-.3-.2L4.9 5.3c0-.1 0-.3.2-.3.1 0 .3 0 .3.2l1.1 3.2c0 .1-.1.2-.2.3zM7.5 9.2c-.1 0-.3 0-.3-.2L5.5 4c0-.1 0-.3.2-.3.1 0 .3 0 .3.2l1.7 5c0 .1 0 .3-.2.3zM7.8 6.8c-.1 0-.3 0-.3-.2l-.3-.8c0-.1 0-.3.2-.3.1 0 .3 0 .3.2l.3.8c0 .1-.1.3-.2.3zM8.9 7.2c-.1 0-.3 0-.3-.2l-.7-2.1c0-.1 0-.3.2-.3.1 0 .3 0 .3.2l.7 2.1c0 .1 0 .2-.2.3zM10.1 7.6c-.1 0-.3 0-.3-.2L8.6 3.8c0-.1 0-.3.2-.3.1 0 .3 0 .3.2l1.2 3.6c0 .1 0 .2-.2.3zM13.7 5.9c-.1 0-.3 0-.3-.2L12.5 3c0-.1 0-.3.2-.3.1 0 .3 0 .3.2l.9 2.8s0 .2-.2.2zM10.7 6.2c-.1 0-.3 0-.3-.2l-.5-1.4c0-.1 0-.3.2-.3.1 0 .3 0 .3.2l.5 1.4c0 .1-.1.2-.2.3zM11.5 5.6c-.1 0-.3 0-.3-.2l-.3-.8c0-.1 0-.3.2-.3.1 0 .3 0 .3.2l.3.8c0 .1 0 .2-.2.3zM14.3 4.6c-.1 0-.3 0-.3-.2l-.3-.8c0-.1 0-.3.2-.3.1 0 .3 0 .3.2l.3.8c0 .1 0 .3-.2.3zM12.4 5c-.1 0-.3 0-.3-.2l-.1-.2c0-.1 0-.3.2-.3.1 0 .3 0 .3.2l.1.2c0 .1-.1.2-.2.3z"/>
            </g>
        </g>
        <g fill-rule="nonzero" transform="translate(5 31)">
            <path fill="#FFF" stroke="#7C7F87" stroke-linecap="round" stroke-linejoin="round" d="M29.6 21.3c8.8-1.9 15.2-4.1 15.8-1.6.7 2.7-6.2 3.3-15 5.2-8.8 1.9-15.7 4.5-16.3 1.7-.6-2.7 6.7-3.4 15.5-5.3z"/>
            <ellipse cx="14" cy="9" fill="#FFF" stroke="#7C7F87" stroke-linecap="round" stroke-linejoin="round" rx="6.9" ry="8.7"/>
            <path fill="#FFF" stroke="#7C7F87" stroke-linecap="round" stroke-linejoin="round" d="M13.5 57.1L23 89.5c2.5 7 4.6 5.5 4.2-.6l-6-62.8c-.1-3.4-3-6.2-6.4-6.2h-2.4c-3.4 0-6.3 2.7-6.4 6.2L1.9 92.4c-.6 6.7 2.3 5.7 3.5.5l7.8-32.6"/>
            <g fill="#BDC1C5" opacity=".5">
                <path d="M12.1 57.7l10.2 31.9c2.5 7 4.6 5.5 4.2-.6l-6.7-62.3c-.1-3.4-3-6.2-6.4-6.2H11c-3.4 0-6.3 2.7-6.4 6.2L.8 92.3c-.6 6.7 2.3 5.7 3.5.5l7.5-31.9.3-3.2z"/>
                <path d="M3.2 50.8l1.5-24.1c.1-3.4 3-6.2 6.4-6.2h2.4c3.4 0 6.3 2.7 6.4 6.2l2.6 24.1s-3.6 1-8.9 1c-4.3 0-10.4-1-10.4-1z"/>
            </g>
            <path fill="#FFF" stroke="#7C7F87" stroke-linecap="round" stroke-linejoin="round" d="M5.9 38.6c-1.5 8.9-2.9 16-4.5 15.8-1.5-.2-.7-7.5.8-16.4 1.5-8.9 1.6-16.2 4.5-15.8 2.7.4.6 7.5-.8 16.4z"/>
            <ellipse cx="15.297" cy="96.196" fill="#7C7F87" opacity=".15" rx="14.6" ry="1.1" transform="rotate(-5.947 15.297 96.196)"/>
        </g>
    </g>
</svg>
