<svg xmlns="http://www.w3.org/2000/svg" width="170" height="150" viewBox="0 0 170 150">
    <g fill="none" fill-rule="nonzero" opacity=".5">
        <path fill="#7C7F87" d="M28.6 33.4c9.6 4.7 51.9 33.9 73.5-11.5 14.7-30.9 114.8 109 35.3 91.5-12.1-2.7-42.9-41.4-45.6-19.2-8.3 65.8-63.4 17.1-87.9-39.9-5-11.5-2.3-34.1 24.7-20.9z" opacity=".1"/>
        <g transform="translate(119 53)">
            <path fill="#FFF" stroke="#7C7F87" stroke-linecap="round" stroke-linejoin="round" d="M3.1 30.9c-1.8 7-3 12.6-1.8 13 1.2.4 2.9-5.3 4.7-12.2 1.8-7 4-12.4 1.8-13-2.2-.6-2.9 5.2-4.7 12.2z"/>
            <ellipse cx="11.5" cy="7.1" fill="#FFF" stroke="#7C7F87" stroke-linecap="round" stroke-linejoin="round" rx="5.5" ry="7"/>
            <path fill="#FFF" stroke="#7C7F87" stroke-linecap="round" stroke-linejoin="round" d="M11.9 45.5L4.3 71.4c-2 5.6-3.7 4.4-3.4-.5l4.8-50.2c.1-2.8 2.4-4.9 5.1-4.9h1.9c2.8 0 5 2.2 5.1 4.9l3.3 53c.5 5.3-1.8 4.6-2.8.4l-6.2-26"/>
            <g fill="#BDC1C5" opacity=".5">
                <path d="M13 46.1L4.9 71.6c-2 5.6-3.7 4.4-3.4-.5l5.4-49.8c.1-2.8 2.4-4.9 5.1-4.9h1.9c2.8 0 5 2.2 5.1 4.9l3 52.4c.5 5.3-1.8 4.6-2.8.4l-6-25.5-.2-2.5z"/>
                <path d="M20.1 40.5L19 21.2c-.1-2.8-2.4-4.9-5.1-4.9H12c-2.8 0-5 2.2-5.1 4.9L4.8 40.5s2.9.8 7.1.8c3.4 0 8.2-.8 8.2-.8z"/>
            </g>
            <path fill="#FFF" stroke="#7C7F87" stroke-linecap="round" stroke-linejoin="round" d="M18 30.8c1.2 7.1 2.3 12.8 3.6 12.6 1.2-.1.5-6-.6-13.1-1.2-7.1-1.3-13-3.6-12.6-2.2.3-.6 6 .6 13.1z"/>
            <ellipse cx="11.757" cy="76.36" fill="#7C7F87" opacity=".15" rx="1" ry="11.7" transform="rotate(-84.053 11.757 76.36)"/>
        </g>
        <g transform="translate(27 53)">
            <path fill="#FFF" stroke="#7C7F87" stroke-linecap="round" stroke-linejoin="round" d="M26.2 21.2c6.7-.1 12-.6 12-2.2s-5.5-1.9-12.1-1.7c-6.7.1-12.1-.8-12 2.2 0 2.9 5.5 1.9 12.1 1.7z"/>
            <g transform="translate(1)">
                <ellipse cx="10.2" cy="7.1" fill="#FFF" stroke="#7C7F87" stroke-linecap="round" stroke-linejoin="round" rx="5.5" ry="7"/>
                <path fill="#FFF" stroke="#7C7F87" stroke-linecap="round" stroke-linejoin="round" d="M10.6 45.4L3.9 74.3c-2 5.6-3.7 4.3-3.4-.5l4-53.2c.1-2.7 2.4-4.9 5.1-4.9h1.9c2.7 0 5 2.2 5.1 4.9l3.5 51.1c.5 5.3-1.8 4.6-2.8.4l-6.5-24.2"/>
                <g fill="#BDC1C5" opacity=".5">
                    <path d="M18.3 40.4l-1.2-19.2c-.1-2.7-2.4-4.9-5.1-4.9h-1.9c-2.7 0-5 2.2-5.1 4.9L3.6 40.4h14.7z"/>
                    <path d="M11.1 45.9L4.4 74.8c-2 5.6-3.7 4.3-3.4-.5l4-53.2c.1-2.7 2.4-4.9 5.1-4.9H12c2.7 0 5 2.2 5.1 4.9l3.5 51.1c.5 5.3-1.8 4.6-2.8.4l-6.5-24.2-.2-2.5z"/>
                </g>
            </g>
            <path fill="#FFF" stroke="#7C7F87" d="M72.1 58.2H28.3c-3.8 0-6.8-3.1-6.8-6.8V25.5c0-3.8 3.1-6.8 6.8-6.8h43.8c3.8 0 6.8 3.1 6.8 6.8v25.8c0 3.8-3 6.9-6.8 6.9z"/>
            <g fill="#BDC1C5" opacity=".9">
                <path d="M29.9 41c-.5 0-1-.4-1-.9v-3.3c0-.5.4-.9.9-.9s.9.4.9.9v3.3c.1.5-.3.9-.8.9zM33.6 42.5c-.5 0-1-.4-1-.9v-6.3c0-.5.4-.9.9-.9s.9.4.9.9v6.3c.1.5-.3.9-.8.9zM37.2 45.7c-.5 0-1-.4-1-.9V32.3c0-.5.4-.9.9-.9s.9.4.9.9v12.5c.1.5-.3.9-.8.9zM40.8 49.1c-.5 0-1-.4-1-.9V28.8c0-.5.4-.9.9-.9s.9.4.9.9v19.4c.2.5-.3.9-.8.9zM44.5 41.1c-.5 0-1-.4-1-.9v-3.3c0-.5.4-.9.9-.9s.9.4.9.9v3.3c.1.5-.3.9-.8.9zM48.1 43.6c-.5 0-1-.4-1-.9v-8.2c0-.5.4-.9.9-.9s.9.4.9.9v8.2c.2.4-.3.9-.8.9zM51.8 46.4c-.5 0-1-.4-1-.9v-14c0-.5.4-.9.9-.9s.9.4.9.9v14c.1.5-.3.9-.8.9zM66.4 44.9c-.5 0-1-.4-1-.9V33.1c0-.5.4-.9.9-.9s.9.4.9.9V44c.1.5-.3.9-.8.9zM55.4 42.2c-.5 0-1-.4-1-.9v-5.5c0-.5.4-.9.9-.9s.9.4.9.9v5.5c.2.5-.3.9-.8.9zM59.1 41.1c-.5 0-1-.4-1-.9v-3.3c0-.5.4-.9.9-.9s.9.4.9.9v3.3c.1.5-.3.9-.8.9zM70 41.1c-.5 0-1-.4-1-.9v-3.3c0-.5.4-.9.9-.9s.9.4.9.9v3.3c.1.5-.3.9-.8.9zM62.7 40c-.5 0-1-.4-1-.9v-1c0-.5.4-.9.9-.9s.9.4.9.9v1c.2.4-.3.9-.8.9z"/>
            </g>
            <path fill="#FFF" stroke="#7C7F87" stroke-linecap="round" stroke-linejoin="round" d="M13.5 30.9c4.4 5.8 8.1 10.3 9.3 9.5 1.1-.8-2.3-5.7-6.7-11.5s-7.2-11-9.3-9.5c-1.9 1.5 2.3 5.7 6.7 11.5z"/>
            <ellipse cx="12.7" cy="77.198" fill="#7C7F87" opacity=".15" rx="11.7" ry="1" transform="rotate(-6.979 12.7 77.198)"/>
        </g>
    </g>
</svg>
