<svg xmlns="http://www.w3.org/2000/svg" xmlns:xlink="http://www.w3.org/1999/xlink" width="170" height="150" viewBox="0 0 170 150">
    <defs>
        <circle id="a" cx="15.2" cy="15.4" r="15.1"/>
    </defs>
    <g fill="none" fill-rule="evenodd" opacity=".5">
        <path fill="#7C7F87" fill-rule="nonzero" d="M101.9 45.4s4.7-44.3 53.1 25.2-52.6 20.2-80.3 26c-28.1 5.8-38 24.7-67.9-53.1-29.9-77.8 91.3 44.2 95.1 1.9z" opacity=".1"/>
        <g transform="translate(33 19)">
            <ellipse cx="52" cy="101.6" fill="#7C7F87" fill-rule="nonzero" opacity=".15" rx="38.6" ry="2.5"/>
            <path fill="#FFF" fill-rule="nonzero" stroke="#7C7F87" stroke-linecap="round" stroke-linejoin="round" d="M42.4 1.7L59 25.1c.4.5.9.8 1.6.8l28.8-.4c1.6 0 2.5 1.7 1.5 3L73.7 51.6c-.4.5-.5 1.1-.3 1.7l9.3 27.3c.5 1.5-.9 2.9-2.4 2.4L53 73.8c-.6-.2-1.2-.1-1.7.3L28.2 91.4c-1.2.9-3 0-3-1.5l.5-28.9c0-.6-.3-1.2-.8-1.6L1.3 42.8c-1.3-.9-1-2.9.5-3.3l27.5-8.6c.6-.2 1-.6 1.2-1.2L39 2.2c.5-1.5 2.5-1.8 3.4-.5z"/>
            <g transform="translate(33 33)">
                <mask id="b" fill="#fff">
                    <use xlink:href="#a"/>
                </mask>
                <use fill="#F2F2F2" fill-rule="nonzero" xlink:href="#a"/>
                <ellipse cx="14.801" cy="12.6" fill="#FFF" fill-rule="nonzero" stroke="#7C7F87" stroke-linecap="round" stroke-linejoin="round" mask="url(#b)" rx="5.3" ry="6.7" transform="rotate(-1.163 14.801 12.6)"/>
                <g fill-rule="nonzero" mask="url(#b)">
                    <path fill="#FFF" stroke="#7C7F87" stroke-linecap="round" stroke-linejoin="round" d="M15.9 49.3L10 77.2c-1.8 5.4-3.4 4.2-3.2-.4l2.8-51.1c0-2.6 2.2-4.8 4.8-4.8h1.8c2.6-.1 4.8 2 5 4.6l4.4 49c.5 5.1-1.6 4.4-2.6.4l-6.7-23.1"/>
                    <g fill="#BDC1C5" opacity=".5">
                        <path d="M23.7 44.3l-1.5-18.4c-.1-2.6-2.4-4.7-5-4.6h-1.8c-2.6.1-4.8 2.2-4.8 4.8l-1 18.5 14.1-.3z"/>
                        <path d="M16.9 49.8L11 77.6c-1.8 5.4-3.4 4.2-3.2-.4l2.8-51.1c0-2.6 2.2-4.8 4.8-4.8h1.8c2.6-.1 4.8 2 5 4.6l4.4 49c.5 5.1-1.6 4.4-2.6.4l-6.7-23.1-.4-2.4z"/>
                    </g>
                </g>
            </g>
            <circle cx="15.2" cy="15.4" r="15.1" stroke="#7C7F87" stroke-linecap="round" stroke-linejoin="round" transform="translate(33 33)"/>
        </g>
        <g stroke="#7C7F87" stroke-linecap="round" stroke-linejoin="round">
            <path fill="#FFF" fill-rule="nonzero" d="M30.2 75.7l3.4 3.3c.2.2.5.3.7.2l4.7-.9c.6-.1 1.2.5.9 1.1l-2.1 4.3c-.1.2-.1.5 0 .7l2.3 4.2c.3.6-.2 1.3-.8 1.2l-4.7-.7c-.3 0-.5.1-.7.2l-3.2 3.5c-.4.5-1.3.2-1.4-.4l-.8-4.7c0-.3-.2-.5-.4-.6l-4.3-2a.77.77 0 0 1 0-1.4l4.2-2.2c.2-.1.4-.3.4-.6l.6-4.7c-.1-.7.7-1 1.2-.5z"/>
            <path d="M21.7 88.6l-2.1 1M26.3 92.8L24.9 95M20.6 93.1l4.5-3"/>
        </g>
        <g stroke="#7C7F87" stroke-linecap="round" stroke-linejoin="round">
            <path fill="#FFF" fill-rule="nonzero" d="M137.2 54.9l.6 3c0 .2.1.3.3.4l2.8 1.2c.4.2.4.7 0 .9l-2.7 1.5c-.1.1-.2.2-.3.4l-.3 3c0 .4-.5.6-.8.3l-2.2-2.1c-.1-.1-.3-.2-.5-.1l-3 .6c-.4.1-.7-.3-.6-.7l1.3-2.8c.1-.2.1-.3 0-.5l-1.5-2.6c-.2-.4.1-.8.5-.8l3 .4c.2 0 .3 0 .4-.2l2-2.3c.4-.2.9 0 1 .4z"/>
            <path d="M140.1 65.7l2.3 3.3M141.2 62.5l2.3 1.8M136.5 67.4l1.3 2.8"/>
        </g>
    </g>
</svg>
