<svg xmlns="http://www.w3.org/2000/svg" width="30" height="30" viewBox="0 0 30 30">
    <g fill="none" fill-rule="evenodd" transform="translate(-1 -1)">
        <circle cx="16" cy="16" r="15" fill="#F5F6F7"/>
        <path d="M0 0h32v32H0z"/>
        <path stroke="#039A0F" d="M20.056 18.948v.001a44.6 44.6 0 0 0-.895.488l-.018.01-.675.377-.306.17-.248.14-.246-.142a8.335 8.335 0 0 1-.836-.592c-.664-.516-1.454-1.211-2.37-2.11-.917-.9-1.625-1.676-2.15-2.327a8.154 8.154 0 0 1-.604-.822l-.152-.253.149-.255.174-.3.384-.662.01-.019c.245-.424.421-.735.497-.878.138-.256.164-.473.13-.525-.27-.418-2.32-3.462-2.499-3.706-.048-.066-.298-.089-.555.087-.906.622-2.354 1.986-2.344 2.279.002.055.001.086 0 .231-.014.973.105 1.8.59 3.005.73 1.822 2.135 3.838 4.395 6.057 2.26 2.22 4.316 3.598 6.174 4.317 1.231.477 2.076.594 3.071.58h.235c.31.01 1.698-1.41 2.334-2.305.178-.247.157-.472.096-.514a290.595 290.595 0 0 0-3.775-2.454c-.068-.04-.3-.015-.566.122z"/>
    </g>
</svg>
