<svg xmlns="http://www.w3.org/2000/svg" width="20" height="22" viewBox="0 0 20 22">
    <g fill="none" fill-rule="nonzero">
        <path fill="#7E8892" d="M4.5 1.1c-.81 0-1.467.657-1.467 1.467v16.866c0 .81.657 1.467 1.467 1.467h11.367c.81 0 1.466-.657 1.466-1.467V5.5l-4.4-4.4H4.5zm0-1.1h8.889l5.044 5.044v14.39A2.567 2.567 0 0 1 15.867 22H4.5a2.567 2.567 0 0 1-2.567-2.567V2.567A2.567 2.567 0 0 1 4.5 0z"/>
        <path fill="#7E858B" d="M17.333 5.5l1.1 1.1h-5.122c-.816 0-1.478-.64-1.478-1.43V0l1.1 1.1v4.07c0 .174.161.33.378.33h4.022zm1.1 1.1h-5.122c-.816 0-1.478-.64-1.478-1.43V0l1.1 1.1v4.07c0 .174.161.33.378.33h4.022l1.1 1.1z"/>
        <g fill="#7E858B">
            <path d="M9.56 8.6a.44.44 0 1 1 .88 0v5.28a.44.44 0 1 1-.88 0V8.6zM6.5 16.52a.44.44 0 0 1 0-.88h7.03a.44.44 0 1 1 0 .88H6.5z"/>
            <path d="M12.292 11.772a.44.44 0 1 1 .622.622l-2.64 2.64a.44.44 0 0 1-.622 0l-2.566-2.566a.44.44 0 0 1 .622-.622L9.963 14.1l2.33-2.329z"/>
        </g>
    </g>
</svg>
