<svg xmlns="http://www.w3.org/2000/svg" width="32" height="32" viewBox="0 0 32 32">
    <g fill="none" fill-rule="evenodd">
        <rect width="32" height="32" fill="#E5F1FA" rx="16"/>
        <g fill="#0081B3" fill-rule="nonzero">
            <path d="M23.85 16.154l-3.84 3.788a.528.528 0 0 0 .742.752l4.217-4.162a.528.528 0 0 0 .003-.75l-4.125-4.124a.528.528 0 1 0-.747.747l3.75 3.749z"/>
            <path d="M24.107 15.636h-8.645a.528.528 0 1 0 0 1.056h8.645a.528.528 0 1 0 0-1.056z"/>
            <path d="M13.563 21.247a45.786 45.786 0 0 0-.987-.3l-.033-.01-.779-.228-.353-.103-.286-.083-.077-.288c-.054-.2-.128-.595-.2-1.21a31.166 31.166 0 0 1-.187-3.195c-.019-1.43.032-2.579.129-3.47.05-.469.103-.772.14-.928l.075-.305.304-.08c.07-.02.07-.02.35-.094.264-.07.527-.14.773-.207l.039-.01c.473-.128.817-.224.972-.271.284-.086.456-.225.469-.288.105-.506.817-4.306.863-4.622.013-.09-.155-.296-.469-.357-1.11-.216-3.162-.287-3.361-.07.043-.047-.429.429-.616.647a7.543 7.543 0 0 0-.922 1.358c-1.055 1.96-1.67 4.769-1.617 8.683.05 3.806.705 6.568 1.765 8.522a8.018 8.018 0 0 0 1.011 1.471c.203.232.699.724.673.695.218.236 2.262.222 3.38.035.303-.05.448-.227.433-.307-.077-.414-.891-4.27-.986-4.651-.02-.083-.21-.238-.503-.334zm-1.502-1.552l.782.23.033.01c.491.145.845.253 1.016.309.603.197 1.075.584 1.199 1.082.1.403.918 4.28.999 4.713.13.698-.444 1.4-1.298 1.542-1.574.262-3.74.278-4.33-.361.052.056-.457-.448-.69-.716a9.07 9.07 0 0 1-1.145-1.662c-1.146-2.113-1.84-5.042-1.893-9.012-.054-4.085.598-7.07 1.744-9.198a8.595 8.595 0 0 1 1.05-1.545c.217-.253.706-.746.639-.673.585-.637 2.75-.562 4.341-.253.839.164 1.41.864 1.312 1.545-.05.343-.765 4.16-.874 4.685-.105.515-.58.898-1.196 1.084-.169.052-.519.149-1.004.28l-.039.01a220.387 220.387 0 0 1-.805.216c-.02.129-.04.292-.063.492-.092.849-.14 1.955-.122 3.343.017 1.24.082 2.263.179 3.084.04.336.079.594.112.78l.053.015z"/>
        </g>
    </g>
</svg>
