<?xml version="1.0" encoding="UTF-8"?>
<svg width="26px" height="26px" viewBox="0 0 26 26" version="1.1" xmlns="http://www.w3.org/2000/svg" xmlns:xlink="http://www.w3.org/1999/xlink">
    <!-- Generator: sketchtool 48.2 (47327) - http://www.bohemiancoding.com/sketch -->
    <title>02AAF3C8-322D-4DEC-AC93-FB3B92B44A42</title>
    <desc>Created with sketchtool.</desc>
    <defs></defs>
    <g id="Event-detail-screen" stroke="none" stroke-width="1" fill="none" fill-rule="evenodd" transform="translate(-261.000000, -1452.000000)">
        <g id="iconCalendarDownload" transform="translate(261.000000, 1452.000000)">
            <rect id="27x27" x="0" y="0" width="26" height="26"></rect>
            <rect id="Rectangle-14" fill="#F9F9F9" x="7.22222222" y="3.66666667" width="1" height="1.77777778"></rect>
            <rect id="Rectangle-14" fill="#F9F9F9" x="19.6666667" y="3.66666667" width="1" height="1.77777778"></rect>
            <g id="iconEvents" transform="translate(1.888889, 1.888889)">
                <rect id="tab" fill="#007DBE" transform="translate(4.888889, 1.777778) rotate(-270.000000) translate(-4.888889, -1.777778) " x="3.11111111" y="1.33333333" width="3.55555556" height="1"></rect>
                <rect id="tab" fill="#007DBE" transform="translate(17.333333, 1.777778) rotate(-270.000000) translate(-17.333333, -1.777778) " x="15.5555556" y="1.33333333" width="3.55555556" height="1"></rect>
                <path d="M5.33333333,2.11111111 L0.311111111,2.11111111 L0.311111111,18.3111111 C0.311111111,21.9111111 3.91111111,21.9111111 3.91111111,21.9111111 L18.3111111,21.9111111 C21.9111111,21.9111111 21.9111111,18.3111111 21.9111111,18.3111111 L21.9111111,2.11111111 L18.6666667,2.11111111" id="outline" stroke="#007DBE" stroke-width="1.2"></path>
                <path d="M6.31111111,2.11111111 L17.1111111,2.11111111" id="Path-5" stroke="#007DBE" stroke-width="1.2"></path>
                <rect id="divider" stroke="#007DBE" stroke-width="1.2" x="3.31111111" y="5.71111111" width="15.6" height="1"></rect>
            </g>
            <g id="iconDownload" transform="translate(7.600000, 10.600000)" stroke="#007DBE" stroke-linecap="round" stroke-width="1.2">
                <path d="M5.4,0 L5.4,7.2" id="Line"></path>
                <path d="M0.490568418,10.2 L10.3508716,10.2" id="Line"></path>
                <polyline id="Path-10" stroke-linejoin="round" transform="translate(5.400000, 4.800000) rotate(-315.000000) translate(-5.400000, -4.800000) " points="2.85441559 7.34558441 7.94558441 7.34558441 7.94558441 2.25441559"></polyline>
            </g>
        </g>
    </g>
</svg>