<?xml version="1.0" encoding="UTF-8"?>
<svg width="26px" height="26px" viewBox="0 0 26 26" version="1.1" xmlns="http://www.w3.org/2000/svg" xmlns:xlink="http://www.w3.org/1999/xlink">
    <!-- Generator: sketchtool 48.2 (47327) - http://www.bohemiancoding.com/sketch -->
    <title>DCFF7325-27EE-4D23-AEBD-86402FD4ACDE</title>
    <desc>Created with sketchtool.</desc>
    <defs></defs>
    <g id="Event-detail-screen----past-event" stroke="none" stroke-width="1" fill="none" fill-rule="evenodd" transform="translate(-751.000000, -1373.000000)">
        <g id="Icon-Assets" transform="translate(105.000000, 1305.000000)">
            <g id="Recording" transform="translate(646.000000, 68.000000)">
                <g id="Attachment" transform="translate(1.000000, 1.000000)">
                    <g id="iconAttachment">
                        <rect id="27x27" x="0" y="0" width="24" height="24"></rect>
                        <path d="M16.4444444,17.8247077 L16.4444444,5.85201241 C16.4444444,5.85201241 16.4444444,1.77777778 12,1.77777778 C7.55555556,1.77777778 7.55555556,5.85201241 7.55555556,5.85201241 L7.70451177,19.0486261 C7.70451177,19.0486261 7.55555556,22.2670781 11.0025862,22.2217478 C14.4496169,22.1764175 14.320502,19.0486261 14.320502,19.0486261 L14.320502,8.62265201 C14.320502,8.62265201 14.2223523,6.67345132 12,6.67345132 C9.77764765,6.67345132 9.77454754,8.62265201 9.77454754,8.62265201 L9.77454754,16.3742923" id="Path-8" stroke="#7E8892" stroke-linecap="round" transform="translate(12.000000, 12.000000) rotate(-360.000000) translate(-12.000000, -12.000000) "></path>
                    </g>
                </g>
            </g>
        </g>
    </g>
</svg>