<svg xmlns="http://www.w3.org/2000/svg" width="32" height="32" viewBox="0 0 32 32">
    <g fill="none" fill-rule="evenodd">
        <rect width="32" height="32" fill="#EBF4FB" rx="16"/>
        <path stroke="#007DBE" stroke-width="1.05" d="M23.03 27.525v-3.738l.324-.134a5.236 5.236 0 0 0 3.232-4.839V11.65a5.235 5.235 0 0 0-5.235-5.235H10.65a5.235 5.235 0 0 0-5.235 5.235v7.165a5.235 5.235 0 0 0 5.235 5.235H18.057l.148.132 4.194 3.703c.28.233.636.09.632-.36z"/>
        <path fill="#007DBE" d="M17.33 18.369v.065a.48.48 0 0 1-.48.48h-5.262a.48.48 0 0 1-.48-.48v-.065a.48.48 0 0 1 .48-.48h5.262a.48.48 0 0 1 .48.48zm3.553-5.333v.055a.48.48 0 0 1-.48.48h-8.815a.48.48 0 0 1-.48-.48v-.055a.48.48 0 0 1 .48-.48h8.815a.48.48 0 0 1 .48.48zm.002 2.666v.056a.48.48 0 0 1-.48.48h-8.817a.48.48 0 0 1-.48-.48v-.056a.48.48 0 0 1 .48-.48h8.817a.48.48 0 0 1 .48.48z"/>
    </g>
</svg>
