<svg xmlns="http://www.w3.org/2000/svg" width="32" height="32" viewBox="0 0 32 32">
    <g fill="none" fill-rule="evenodd" transform="translate(5 5)">
        <circle cx="10.946" cy="10.946" r="10.833" fill="#EB3530"/>
        <path fill="#FFF" fill-rule="nonzero" d="M8.85 13.445H8.6v.076h.176l.074-.076zm-.987-2.417a.961.961 0 0 0 .412-.331.836.836 0 0 0 .134-.48c0-.36-.1-.617-.296-.79-.203-.18-.512-.274-.937-.274H5.833v4.118h.096v-2.003h1.356l.052.001.526-.241zm.165.55c.184.201.274.463.274.772v.422c0 .135.01.266.03.392a.446.446 0 0 0 .03.107h.101a1.763 1.763 0 0 1-.066-.493v-.435c0-.231-.043-.418-.125-.563a.613.613 0 0 0-.293-.252.972.972 0 0 1 .05.05zm-1.6 2.193H5.334V8.653h1.843c.538 0 .964.13 1.268.4.312.274.465.67.465 1.164 0 .285-.072.54-.219.758a1.32 1.32 0 0 1-.234.264c.102.082.185.18.25.293.129.226.191.497.191.811v.435c0 .123.013.231.037.323a.34.34 0 0 0 .09.164l.076.18v.326h-.864l-.168-.066a.77.77 0 0 1-.23-.462 3 3 0 0 1-.036-.471v-.422c0-.19-.049-.331-.143-.435-.09-.098-.209-.147-.374-.147h-.856v2.003zm-.5-2.495V9.142h1.248c.364 0 .651.091.848.287.195.193.29.459.29.782 0 .34-.098.612-.304.799-.202.183-.502.266-.895.266H5.93zm1.187-.5c.28 0 .465-.05.56-.136.09-.082.14-.22.14-.43 0-.197-.05-.334-.143-.426-.091-.09-.252-.142-.496-.142h-.747v1.134h.686zm5.18.36l-.008-.007h-.242v.008h.242l.008-.008v.008zm.275-1.986l-.008-.008h-.242v.008h.242l.008-.008h-.008l.008.008zm-.008 0h.008l-.008-.008h-.242v.008h.242l.008-.008h-.008v.008zm-2.628 4.12h.095V9.15h-.095v4.12zm.345-2.141h-.25v.008h2.016v.242l.242-.242h.008l-.008-.008h-.242v.008l-1.766-.008zm1.766 0h-2.016v.008h2.016v.242l.242-.242h.008l-.008-.008h-.242v.008-.008zm.5-.492v.992h-2.016v1.153h2.324v.989h-3.42V8.65h3.387v.992h-2.29v.995h2.015zm2.643-1.518c.22.054.409.16.56.315.177.185.284.417.324.692h.083a1.1 1.1 0 0 0-.34-.694 1.246 1.246 0 0 0-.627-.313zm.618 3.852c.205-.2.321-.437.359-.68h-.092c-.04.28-.147.516-.326.7a1.1 1.1 0 0 1-.367.251 1.21 1.21 0 0 0 .426-.271zm-2.006-.15c-.228-.327-.341-.728-.341-1.198v-.828c0-.466.113-.865.341-1.191a1.19 1.19 0 0 1 .65-.481 1.25 1.25 0 0 0-.675.429c-.274.324-.411.737-.411 1.249v.822c0 .512.137.925.41 1.248.174.205.378.342.618.412a1.201 1.201 0 0 1-.592-.463zm2.849-.855l.017.09c.01.502-.162.931-.51 1.272-.347.34-.804.51-1.356.51-.57 0-1.046-.218-1.407-.644-.354-.418-.53-.945-.53-1.571v-.822c0-.626.176-1.153.53-1.572a1.767 1.767 0 0 1 1.407-.646c.558 0 1.016.161 1.36.486.346.328.516.765.495 1.363l-.062.194H15.59v-.25c0-.263-.068-.456-.202-.595-.13-.136-.321-.206-.587-.206-.25 0-.44.1-.59.316-.167.237-.251.536-.251.904v.828c0 .372.084.673.25.91.152.215.34.316.59.316.267 0 .458-.07.589-.205.133-.137.201-.333.201-.602v-.25h1.004l.056.174z"/>
    </g>
</svg>
