<svg xmlns="http://www.w3.org/2000/svg" width="32" height="32" viewBox="0 0 32 32">
    <g fill="none" fill-rule="evenodd">
        <circle cx="16" cy="16" r="16" fill="#E5F1FA"/>
        <path fill="#0081B3" fill-rule="nonzero" d="M11.501 4.571a.402.402 0 0 0-.402.402V25.29c0 .221.18.401.402.401H22.33c.222 0 .402-.18.402-.401V4.973a.402.402 0 0 0-.402-.402H11.5zm0-1.142H22.33c.853 0 1.545.691 1.545 1.544V25.29c0 .853-.692 1.544-1.545 1.544H11.5a1.545 1.545 0 0 1-1.544-1.544V4.973c0-.853.691-1.544 1.544-1.544z"/>
        <path fill="#0081B3" fill-rule="nonzero" d="M11.1 7.692V21.01h11.632V7.692H11.099zM9.956 6.55h13.918v15.604H9.957V6.55z"/>
        <path fill="#FFF" d="M9.956 12.938H11.1v3.657H9.956z"/>
        <path fill="#0081B3" fill-rule="nonzero" d="M15.37 5.765h3.092a.386.386 0 0 0 0-.772h-3.093a.386.386 0 0 0 0 .772zM16.916 25.566a1.458 1.458 0 0 1-1.453-1.462c0-.808.65-1.463 1.453-1.463.802 0 1.452.655 1.452 1.463 0 .807-.65 1.462-1.452 1.462zm0-.585a.873.873 0 0 0 .867-.877.873.873 0 0 0-.867-.878.873.873 0 0 0-.868.878c0 .485.39.877.868.877z"/>
        <g fill="#0081B3" fill-rule="nonzero">
            <path d="M12.633 11.887a.571.571 0 1 1 .791-.825l3.488 3.348a.571.571 0 0 1-.007.831l-3.488 3.235a.571.571 0 0 1-.777-.838l3.044-2.823-3.051-2.928z"/>
            <path d="M15.543 15.36H5.303a.571.571 0 1 1 0-1.143h10.24a.571.571 0 1 1 0 1.143z"/>
        </g>
    </g>
</svg>
