<svg xmlns="http://www.w3.org/2000/svg" width="32" height="32" viewBox="0 0 32 32">
    <g fill="#484A4C" fill-rule="nonzero">
        <path d="M7.937 9.15c-.987 0-1.787.8-1.787 1.787v10.36c0 .987.8 1.787 1.787 1.787h9.766c.987 0 1.787-.8 1.787-1.787v-10.36c0-.987-.8-1.787-1.787-1.787H7.937zm0-1.15h9.766a2.937 2.937 0 0 1 2.937 2.937v10.36a2.937 2.937 0 0 1-2.937 2.937H7.937A2.937 2.937 0 0 1 5 21.297v-10.36A2.937 2.937 0 0 1 7.937 8zM22.787 18.072c0 .397 0 .724.002.98l3.477 1.73v-9.134l-3.47 2.06c-.006 1.903-.009 3.358-.009 4.364zm-1.138-5.02l4.288-2.546a.98.98 0 0 1 1.479.842v9.71a.98.98 0 0 1-1.415.876l-4.352-2.164c-.016-.025-.016-2.264 0-6.717zM6.073 26.52H19.49a.575.575 0 1 0 0-1.15H6.073a.575.575 0 0 0 0 1.15z"/>
    </g>
</svg>
