<svg xmlns="http://www.w3.org/2000/svg" xmlns:xlink="http://www.w3.org/1999/xlink" width="16" height="16" viewBox="0 0 16 16">
    <defs>
        <path id="a" d="M4.308 6.506h-.93a.916.916 0 0 0-.916.92v6.42c0 .51.41.92.916.92h9.244a.916.916 0 0 0 .916-.92v-6.42c0-.51-.41-.92-.916-.92h-.93"/>
    </defs>
    <g fill="none" fill-rule="evenodd">
        <use fill="#FDB913" xlink:href="#a"/>
        <path stroke="#FDB913" stroke-width="1.5" d="M12.622 7.256H3.378a.166.166 0 0 0-.166.17v6.42c0 .095.074.17.166.17h9.244a.166.166 0 0 0 .166-.17v-6.42a.166.166 0 0 0-.166-.17z"/>
        <path stroke="#FDB913" stroke-linecap="square" stroke-width="1.5" d="M3.928 7.28h8.307"/>
        <rect width="1.133" height="3.405" x="7.433" y="8.946" fill="#FFF" rx=".567"/>
        <path fill="#FDB913" fill-rule="nonzero" d="M6.5 6.043V4a1.5 1.5 0 1 1 3 .001v.097H11V4.05v.048H9.54v-1.5h1.113A3 3 0 0 0 5 4v3.003l1.5-.96zm0 0V4a1.5 1.5 0 1 1 3 .001v.097H11V4.05v.048H9.54v-1.5h1.113A3 3 0 0 0 5 4v3.003l1.5-.96z"/>
        <path fill="#FDB913" d="M5 6h1.5v1H5zM9.5 2.8c.004-.214.03-.36.078-.438.143-.23.293-.508.453-.508.066 0 .197.118.257.176.097.096.202.19.305.332.099.138.192.414.28.826l.029 1.793H9.5V2.8z"/>
    </g>
</svg>
