<svg xmlns="http://www.w3.org/2000/svg" width="32" height="32" viewBox="0 0 32 32">
    <g fill="none" fill-rule="evenodd">
        <path d="M0 0h32v32H0z"/>
        <rect width="30" height="30" x="1" y="1" fill="#039A0F" rx="15"/>
        <path fill="#FFF" fill-rule="nonzero" d="M10.828 9.07c-.288.208-.78.61-1.162.97-.25.236-.451.45-.582.62a1.612 1.612 0 0 0-.082.116v.086c-.012.818.086 1.5.496 2.52.636 1.583 1.869 3.354 3.872 5.32 2.004 1.968 3.81 3.18 5.427 3.806 1.046.404 1.747.502 2.588.49h.237c-.135-.003-.096-.022-.007-.087.174-.13.392-.327.633-.573.351-.359.743-.818.96-1.105a345.89 345.89 0 0 0-2.977-1.935.763.763 0 0 0-.111.048c-.126.065-.412.221-.8.436l-.63.351-.276.155-.496.279-.493-.284c-.55-.318-1.559-1.102-3.024-2.54-1.466-1.439-2.266-2.43-2.59-2.972l-.303-.507.298-.51.158-.27.347-.601c.229-.397.388-.678.454-.802a.797.797 0 0 0 .038-.079c-.384-.58-1.525-2.273-1.975-2.932zm8.831 9.388c.36-.186.731-.233.957-.098.342.205 3.214 2.08 3.455 2.246.242.166.359.641.026 1.107-.33.465-1.858 2.305-2.506 2.285-.648-.02-3.839.408-8.922-4.582-5.081-4.988-4.646-8.12-4.667-8.757-.02-.636 1.854-2.135 2.328-2.46.475-.326.96-.203 1.128.025.191.26 2.08 3.07 2.287 3.392.143.22.09.587-.1.94-.188.353-.976 1.702-.976 1.702s.555.93 2.432 2.77c1.877 1.843 2.823 2.388 2.823 2.388s1.375-.772 1.735-.958z"/>
    </g>
</svg>
