<svg xmlns="http://www.w3.org/2000/svg" width="170" height="150" viewBox="0 0 170 150">
    <g fill="none" fill-rule="evenodd" opacity=".5" transform="translate(1 22)">
        <path fill="#7C7F87" fill-rule="nonzero" d="M96.7 20.6c3.3 13.1 5.9 42.1-64.1-8.3-48.6-35-39.5 97.6 16 66.3 14.6-8.2 169.8 38.7 103-48C111-22 93.5 7.5 96.7 20.6z" opacity=".1"/>
        <g transform="translate(14 9)">
            <g fill-rule="nonzero">
                <g transform="translate(4 36)">
                    <ellipse cx="9" cy="5.7" fill="#FFF" stroke="#7C7F87" stroke-linecap="round" stroke-linejoin="round" rx="4.2" ry="5.2"/>
                    <path fill="#FFF" stroke="#7C7F87" stroke-linecap="round" stroke-linejoin="round" d="M8.7 34.5l5.1 21.8c1.5 4.2 2.8 3.3 2.5-.4l-3-40c-.1-2.1-1.8-3.7-3.8-3.7H8c-2.1 0-3.8 1.6-3.8 3.7L1.8 56.3c-.3 4 1.4 3.4 2.1.3l4.7-20.2"/>
                    <g fill="#BDC1C5" opacity=".5">
                        <path d="M2.5 30.8l.9-14.5c.1-2.1 1.8-3.7 3.8-3.7h1.4c2.1 0 3.8 1.6 3.8 3.7l1.1 14.5h-11z"/>
                        <path d="M7.9 34.9L13 56.7c1.5 4.2 2.8 3.3 2.5-.4l-3-40c-.1-2.1-1.8-3.7-3.8-3.7H7.3c-2.1 0-3.8 1.6-3.8 3.7L1 56.7c-.3 4 1.4 3.4 2.1.3l4.7-20.2.1-1.9z"/>
                    </g>
                </g>
                <path fill="#FFF" stroke="#7C7F87" stroke-linecap="round" stroke-linejoin="round" d="M19.4 59.4c2.2 4.6 3.7 7.8 4.9 7.4 1.3-.5-.7-3.8-2.9-8.4-2.2-4.6-3.5-8.5-5.1-7.8-1.4.7.9 4.2 3.1 8.8z"/>
            </g>
            <ellipse cx="13" cy="95.5" fill="#7C7F87" fill-rule="nonzero" opacity=".15" rx="12.1" ry="1"/>
            <path stroke="#7C7F87" stroke-linecap="round" stroke-linejoin="round" d="M94.2 24.6c-.2 2.5-.6 3.3-1.2 3.3M37.9 6.8h.5M41.6 8.4c-.8-.9-1.9-1.5-3.2-1.6"/>
            <path fill="#FAFAFA" fill-rule="nonzero" stroke="#7C7F87" stroke-linecap="round" stroke-linejoin="round" d="M102 7.1c.6 0 1.2 0 1.7.2 11.4 3.2-2.9 47.3-2.9 47.3l-2.3-.2"/>
            <g transform="translate(27 2)">
                <path fill="#FFF" fill-rule="nonzero" stroke="#7C7F87" stroke-linecap="round" stroke-linejoin="round" d="M.9 69.2l61.3 6.6 7.2-4.6 7.2-63.8-58-6.6L8.5 2.6S5.5 43.3 3.8 55C3 59.9.9 69.2.9 69.2z"/>
                <path stroke="#7C7F87" stroke-linecap="round" stroke-linejoin="round" d="M75.8 8.3l-5.5 1.8L9.2 3.3M70 11.6l-1 8.9M61.9 74.2c.6-3.9 6.9-51.1 6.9-51.1"/>
                <circle cx="23.827" cy="10.786" r="2.7" stroke="#7C7F87" stroke-linecap="round" stroke-linejoin="round" transform="rotate(-83.547 23.827 10.786)"/>
                <circle cx="51.688" cy="13.949" r="2.7" stroke="#7C7F87" stroke-linecap="round" stroke-linejoin="round" transform="rotate(-83.547 51.688 13.949)"/>
                <circle cx="24.402" cy="11.407" r="2.7" fill="#E5E6E8" fill-rule="nonzero" transform="rotate(-83.547 24.402 11.407)"/>
                <circle cx="52.163" cy="14.559" r="2.7" fill="#E5E6E8" fill-rule="nonzero" transform="rotate(-83.547 52.163 14.56)"/>
                <path fill="#FFF" fill-rule="nonzero" stroke="#7C7F87" stroke-linecap="round" stroke-linejoin="round" d="M7.9 15.4l60.9 6.9h.1l5.7-3"/>
                <path stroke="#7C7F87" stroke-linecap="round" stroke-linejoin="round" d="M68.2 70.4l.9-8M66.8 70.9l.4-3.2M65.4 72.1l1.1-10.3M63.9 72.5l.8-7.5"/>
                <g fill="#BDC1C5" fill-rule="nonzero" opacity=".5">
                    <path d="M30.4 55.8l.7-4.9c0-.3-.2-.6-.5-.7l-4.9-.5c-.3 0-.6.2-.7.5l-.7 4.9c0 .3.2.6.5.7l4.9.5c.3 0 .6-.2.7-.5zM42.8 58.2l-4.9-.5c-.3 0-.6.2-.7.5l-.6 4.4c0 .3.2.6.5.7l4.9.5c.3 0 .6-.2.7-.5l.6-4.4c.1-.4-.2-.7-.5-.7zM38.1 51.6l-.7 4.9c0 .3.2.6.5.7l4.9.5c.3 0 .6-.2.7-.5l.7-4.9c0-.3-.2-.6-.5-.7l-4.9-.5c-.3 0-.6.2-.7.5zM36.2 57.5l-4.9-.5c-.3 0-.6.2-.7.5L30 62c0 .3.2.6.5.7l4.9.5c.3 0 .6-.2.7-.5l.6-4.4c.1-.5-.2-.8-.5-.8zM29.5 61.9l.6-4.4c0-.3-.2-.6-.5-.7l-4.9-.5c-.3 0-.6.2-.7.5l-.6 4.4c0 .3.2.6.5.7l4.9.5c.4.1.7-.2.7-.5zM26.5 35.4l.7-4.9c0-.3-.2-.6-.5-.7l-4.9-.5c-.3 0-.6.2-.7.5l-.7 4.9c0 .3.2.6.5.7l4.9.5c.3.1.6-.2.7-.5zM39.1 45.1l-.7 4.9c0 .3.2.6.5.7l4.9.5c.3 0 .6-.2.7-.5l.7-4.9c0-.3-.2-.6-.5-.7l-4.9-.5c-.4-.1-.7.1-.7.5zM40 38.5l-.7 4.9c0 .3.2.6.5.7l4.9.5c.3 0 .6-.2.7-.5l.7-4.9c0-.3-.2-.6-.5-.7l-5-.5c-.3-.1-.6.2-.6.5zM40.9 31.9l-.7 4.9c0 .3.2.6.5.7l4.9.5c.3 0 .6-.2.7-.5l.7-4.9c0-.3-.2-.6-.5-.7l-4.9-.5c-.4 0-.7.2-.7.5zM32.5 44.4l-.7 4.9c0 .3.2.6.5.7l4.9.5c.3 0 .6-.2.7-.5l.7-4.9c0-.3-.2-.6-.5-.7l-4.9-.5c-.4-.1-.7.2-.7.5zM33.4 37.8l-.7 4.9c0 .3.2.6.5.7l4.9.5c.3 0 .6-.2.7-.5l.7-4.9c0-.3-.2-.6-.5-.7l-5-.5c-.3 0-.6.2-.6.5zM37 56.5l.7-4.9c0-.3-.2-.6-.5-.7l-4.9-.5c-.3 0-.6.2-.7.5l-.7 4.9c0 .3.2.6.5.7l4.9.5c.3 0 .6-.2.7-.5zM16.4 55.5l-4.9-.5c-.3 0-.6.2-.7.5l-.6 4.4c0 .3.2.6.5.7l4.9.5c.3 0 .6-.2.7-.5l.6-4.4c.1-.4-.2-.7-.5-.7zM34.3 31.2l-.7 4.9c0 .3.2.6.5.7l4.9.5c.3 0 .6-.2.7-.5l.7-4.9c0-.3-.2-.6-.5-.7l-4.9-.5c-.4 0-.7.2-.7.5zM32.2 42.6l.7-4.9c0-.3-.2-.6-.5-.7l-4.9-.5c-.3 0-.6.2-.7.5l-.7 5c0 .3.2.6.5.7l4.9.5c.3 0 .6-.2.7-.6zM27.5 36.1l4.9.5c.3 0 .6-.2.7-.5l.7-4.9c0-.3-.2-.6-.5-.7l-4.9-.5c-.3 0-.6.2-.7.5l-.7 4.9c0 .4.2.7.5.7zM31.3 49.2l.7-4.9c0-.3-.2-.6-.5-.7l-4.9-.5c-.3 0-.6.2-.7.5l-.7 4.9c0 .3.2.6.5.7l4.9.5c.3.1.6-.2.7-.5zM51.3 53l-.7 4.9c0 .3.2.6.5.7l4.9.5c.3 0 .6-.2.7-.5l.7-4.9c0-.3-.2-.6-.5-.7l-4.9-.5c-.3-.1-.6.2-.7.5zM18.1 47.9l.7-4.9c0-.3-.2-.6-.5-.7l-4.9-.5c-.3 0-.6.2-.7.5l-.7 4.9c0 .3.2.6.5.7l4.9.5c.3 0 .6-.2.7-.5zM19.9 34.7l.7-4.9c0-.3-.2-.6-.5-.7l-4.9-.5c-.3 0-.6.2-.7.5l-.7 4.9c0 .3.2.6.5.7l4.9.5c.3.1.6-.2.7-.5zM19 41.3l.7-4.9c0-.3-.2-.6-.5-.7l-4.9-.5c-.3 0-.6.2-.7.5l-.7 4.9c0 .3.2.6.5.7l4.9.5c.3 0 .6-.2.7-.5zM50.4 59.6l-.6 4.4c0 .3.2.6.5.7l4.9.5c.3 0 .6-.2.7-.5l.6-4.4c0-.3-.2-.6-.5-.7l-4.9-.6c-.3 0-.6.2-.7.6zM17.2 54.4l.7-4.9c0-.3-.2-.6-.5-.7l-4.9-.5c-.3 0-.6.2-.7.5l-.7 4.9c0 .3.2.6.5.7l4.9.5c.3.1.6-.1.7-.5zM54.1 33.3l-.7 4.9c0 .3.2.6.5.7l4.9.5c.3 0 .6-.2.7-.5l.7-4.9c0-.3-.2-.6-.5-.7l-4.9-.5c-.4-.1-.7.2-.7.5zM52.2 46.4l-.7 4.9c0 .3.2.6.5.7l4.9.5c.3 0 .6-.2.7-.5l.7-4.9c0-.3-.2-.6-.5-.7l-4.9-.5c-.3 0-.6.2-.7.5zM53.1 39.9l-.7 4.9c0 .3.2.6.5.7l4.9.5c.3 0 .6-.2.7-.5l.7-4.9c0-.3-.2-.6-.5-.7l-4.9-.5c-.3-.1-.6.1-.7.5zM25.6 42l.7-4.9c0-.3-.2-.6-.5-.7l-4.9-.5c-.3 0-.6.2-.7.5l-.7 4.9c0 .3.2.6.5.7l4.9.5c.3 0 .6-.2.7-.5zM22.9 61.2l.6-4.4c0-.3-.2-.6-.5-.7l-4.9-.5c-.3 0-.6.2-.7.5l-.6 4.4c0 .3.2.6.5.7l4.9.5c.4.1.7-.1.7-.5zM43.8 58.9l-.6 4.4c0 .3.2.6.5.7l4.9.5c.3 0 .6-.2.7-.5l.6-4.4c0-.3-.2-.6-.5-.7l-4.9-.5c-.3-.1-.6.2-.7.5zM23.8 55.1l.7-4.9c0-.3-.2-.6-.5-.7l-5-.4c-.3 0-.6.2-.7.5l-.7 4.9c0 .3.2.6.5.7l4.9.5c.4 0 .7-.3.8-.6zM24.7 48.5l.7-4.9c0-.3-.2-.6-.5-.7l-4.9-.5c-.3 0-.6.2-.7.5l-.7 4.9c0 .3.2.6.5.7l4.9.5c.3.1.6-.1.7-.5zM44.7 52.3l-.7 4.9c0 .3.2.6.5.7l4.9.5c.3 0 .6-.2.7-.5l.7-4.9c0-.3-.2-.6-.5-.7l-4.9-.5c-.3 0-.6.2-.7.5zM46.6 39.2l-.7 4.9c0 .3.2.6.5.7l4.9.5c.3 0 .6-.2.7-.5l.7-4.9c0-.3-.2-.6-.5-.7l-4.9-.5c-.4-.1-.7.1-.7.5zM47.5 32.6l-.7 4.9c0 .3.2.6.5.7l4.9.5c.3 0 .6-.2.7-.5l.7-4.9c0-.3-.2-.6-.5-.7l-4.9-.5c-.4-.1-.7.2-.7.5zM45.6 45.7l-.6 4.9c0 .3.2.6.5.7l4.9.5c.3 0 .6-.2.7-.5l.7-4.9c0-.3-.2-.6-.5-.7l-4.9-.5c-.4 0-.7.2-.8.5z"/>
                </g>
            </g>
            <path fill="#FFF" fill-rule="nonzero" stroke="#7C7F87" stroke-linecap="round" stroke-linejoin="round" d="M92.5 24.8s.9 2.5 1.8 2.6l-60.9-6.3h-.3c-.9-.3-1.7-2.6-1.7-2.6S26.3 1.7 40.8.8h.7l.5.1 59.9 6.2c-14.5.8-9.4 17.7-9.4 17.7z"/>
            <path stroke="#7C7F87" stroke-linecap="round" stroke-linejoin="round" d="M95.8 24.4c-.5 2.2-.9 3-1.3 3.1h-.2"/>
        </g>
        <g stroke="#7C7F87" stroke-linecap="round" stroke-linejoin="round">
            <path d="M29.5 22l4.1 6.8c.7 1.1.3 2.6-.8 3.3-1.1.7-2.6.3-3.3-.8l-4.6-7.7"/>
            <path d="M27.9 28.7l-3.8-6.4c-.6-.9-.3-2.2.7-2.7.9-.6 2.2-.3 2.7.7l3.4 5.6"/>
            <path d="M28.3 21.6l3 5c.5.8.2 1.8-.5 2.2-.8.5-1.8.2-2.3-.5L25.9 24"/>
        </g>
        <ellipse cx="78.8" cy="96.8" fill="#7C7F87" fill-rule="nonzero" opacity=".1" rx="30.4" ry="2.7"/>
        <g transform="translate(138 46)">
            <path fill="#FFF" fill-rule="nonzero" stroke="#7C7F87" stroke-linecap="round" stroke-linejoin="round" d="M9.3 15.8s1.3.1.1 3-2.5.3-2.2-.5c.3-.7-.7-1-.7-1"/>
            <path fill="#FFF" fill-rule="nonzero" stroke="#7C7F87" stroke-linecap="round" stroke-linejoin="round" d="M11.9 5.6L8.5 16.8s-2.8-.6-5 1.1l-2.1-4.7L5.2 1.1l6.7 4.5z"/>
            <path stroke="#7C7F87" stroke-linecap="round" stroke-linejoin="round" d="M8.3 16.3l-6.4-3.2"/>
            <ellipse cx="5.514" cy=".916" fill="#FFF" fill-rule="nonzero" stroke="#7C7F87" stroke-linecap="round" stroke-linejoin="round" rx="1" ry="1" transform="rotate(-75.049 5.514 .916)"/>
            <path fill="#FFF" fill-rule="nonzero" stroke="#7C7F87" stroke-linecap="round" stroke-linejoin="round" d="M6.3 1.1L2.5 12.7l-1.6-.5L4.7.7"/>
            <ellipse cx="1.666" cy="12.419" fill="#FFF" fill-rule="nonzero" stroke="#7C7F87" stroke-linecap="round" stroke-linejoin="round" rx="1" ry="1" transform="rotate(-75.049 1.666 12.42)"/>
            <path fill="#E5E6E8" fill-rule="nonzero" d="M8.5 16.7s-2.8-.6-5 1.1l-2.1-4.7 7.1 3.6z"/>
            <path stroke="#7C7F87" stroke-linecap="round" stroke-linejoin="round" d="M5.6 3.4l9.9 9.1c.6.6 1.5.7 2.3.4 1.2-.5 2.9-.6 1.6 3.4-1.6 4.8-3 1.9-3.2 0-.2-1.9-13.3-4.9-13.3-4.9"/>
        </g>
    </g>
</svg>
