<svg xmlns="http://www.w3.org/2000/svg" width="40" height="40" viewBox="0 0 40 40">
    <g fill="none" fill-rule="evenodd">
        <circle cx="20" cy="20" r="20" fill="#1C3255" fill-rule="nonzero"/>
        <g transform="translate(10 12)">
            <path fill="#FFF" fill-rule="nonzero" d="M14.348 15.13c1.778 0 3.391-1.598 3.391-3.39v-.662l2.933 1.866c.293.187.633.286.98.286 1.009 0 1.826-.818 1.826-1.826V3.578c0-.364-.108-.718-.31-1.02-.563-.836-1.698-1.059-2.535-.496L17.74 4.01V3.39C17.74 1.6 16.126 0 14.348 0H3.391C1.613 0 0 1.599 0 3.391v8.348c0 1.793 1.613 3.392 3.391 3.392h.242c.433 0 .783-.35.783-.783 0-.432-.35-.783-.783-.783h-.242c-.917 0-1.826-.9-1.826-1.826V3.391c0-.925.91-1.826 1.826-1.826h10.957c.917 0 1.826.901 1.826 1.826v2.087c0 .627.7 1 1.22.65l4.113-2.767c.12-.08.281-.049.362.071.029.043.044.094.044.146v7.826c0 .144-.117.26-.26.26-.05 0-.099-.014-.14-.04l-4.136-2.632c-.521-.332-1.203.043-1.203.66v2.087c0 .925-.909 1.826-1.826 1.826H9.131c-.21 0-.412.085-.56.235l-3.969 4.046c-.303.309-.298.804.01 1.107.31.303.805.298 1.107-.01l3.74-3.812h4.889z"/>
            <circle cx="9.131" cy="7.565" r="1.043" fill="#00A1E0"/>
            <circle cx="5.478" cy="7.565" r="1.043" fill="#00A1E0"/>
            <circle cx="12.783" cy="7.565" r="1.043" fill="#00A1E0"/>
        </g>
    </g>
</svg>
