<?xml version="1.0" encoding="UTF-8"?>
<svg width="22px" height="25px" viewBox="0 0 22 25" version="1.1" xmlns="http://www.w3.org/2000/svg" xmlns:xlink="http://www.w3.org/1999/xlink">
    <!-- Generator: Sketch 59.1 (86144) - https://sketch.com -->
    <title>icon-teamwork-default</title>
    <desc>Created with Sketch.</desc>
    <g id="Messages-tab-naming" stroke="none" stroke-width="1" fill="none" fill-rule="evenodd">
        <g id="3" transform="translate(-202.000000, -383.000000)">
            <g transform="translate(54.000000, 42.000000)" id="Group-2">
                <g transform="translate(134.000000, 336.000000)">
                    <g id="icon-teamwork-default" transform="translate(12.000000, 5.000000)">
                        <g id="Group" transform="translate(0.296875, 0.036458)">
                            <polygon id="Path" points="0 0 25 0 25 25 0 25"></polygon>
                            <path d="M4.6296224,10.6554036 C5.91204427,10.6554036 6.95169271,9.61575521 6.95169271,8.33333333 C6.95169271,7.05091146 5.91204427,6.01126302 4.62955729,6.01126302 C3.34707031,6.01126302 2.30755208,7.05091146 2.30755208,8.33333333 C2.30755208,9.61575521 3.34720052,10.6554036 4.6296224,10.6554036 Z M12.5,23.6182943 C13.7824219,23.6182943 14.8220703,22.5787109 14.8220703,21.2962891 C14.8220703,20.0138672 13.7824219,18.9742187 12.5,18.9742187 C11.2175781,18.9742187 10.1779297,20.0138672 10.1779297,21.2962891 C10.1779297,22.5787109 11.2175781,23.6183594 12.5,23.6183594 L12.5,23.6182943 Z M12.5,6.02578125 C13.7824219,6.02578125 14.8220703,4.98613281 14.8220703,3.70371094 C14.8220703,2.42128906 13.7824219,1.38164062 12.5,1.38164062 C11.2175781,1.38164062 10.1779297,2.42128906 10.1779297,3.70371094 C10.1779297,4.98613281 11.2175781,6.02578125 12.5,6.02578125 L12.5,6.02578125 Z M20.3703776,18.9886719 C21.6527995,18.9886719 22.6924479,17.9490885 22.6924479,16.6666667 C22.6924479,15.3842448 21.6527995,14.3445964 20.3703776,14.3445964 C19.0879557,14.3445964 18.0483073,15.3842448 18.0483073,16.6666667 C18.0483073,17.9490885 19.0879557,18.988737 20.3703776,18.988737 L20.3703776,18.9886719 Z" id="Shape" stroke="#11284C" stroke-width="0.911458333"></path>
                            <circle id="Oval" stroke="#00A1F4" stroke-width="0.911458333" cx="20.3703776" cy="8.33333333" r="2.32207031"></circle>
                            <circle id="Oval" stroke="#00A1F4" stroke-width="0.911458333" cx="4.6296224" cy="16.6666667" r="2.32207031"></circle>
                            <line x1="17.8555339" y1="9.56809896" x2="6.81113281" y2="15.4404948" id="Path" stroke="#00A1F4" stroke-width="0.911458333" stroke-linecap="square"></line>
                            <path d="M12.3507812,6.25 L12.3507812,18.7585937 M17.8555339,15.4404948 L6.81113281,9.56809896" id="Shape" stroke="#11284C" stroke-width="0.911458333" stroke-linecap="square"></path>
                        </g>
                    </g>
                </g>
            </g>
        </g>
    </g>
</svg>