<svg width="17" height="24" viewBox="0 0 17 24" fill="none" xmlns="http://www.w3.org/2000/svg">
<path d="M8.6734 23.7504C13.4547 23.7504 16.8609 21.0629 16.8609 17.2816C16.8609 14.4847 14.9234 12.1722 12.0015 11.4847V11.4222C14.4547 10.641 15.939 8.73474 15.939 6.39099C15.939 2.95349 12.8922 0.453491 8.6734 0.453491C4.4859 0.453491 1.39215 2.96912 1.39215 6.37537C1.39215 8.75037 2.90778 10.6722 5.34528 11.4222V11.4847C2.43903 12.1566 0.501526 14.4691 0.501526 17.2816C0.501526 21.0472 3.90778 23.7504 8.6734 23.7504ZM8.6734 21.2972C5.57965 21.2972 3.3609 19.5316 3.3609 17.0785C3.3609 14.6097 5.57965 12.8441 8.6734 12.8441C11.7828 12.8441 13.9859 14.5941 13.9859 17.0785C13.9859 19.5316 11.7828 21.2972 8.6734 21.2972ZM8.6734 10.3754C6.03278 10.3754 4.18903 8.82849 4.18903 6.64099C4.18903 4.43787 6.03278 2.87537 8.6734 2.87537C11.314 2.87537 13.1578 4.42224 13.1578 6.64099C13.1578 8.82849 11.2984 10.3754 8.6734 10.3754Z" fill="#464B51"/>
</svg>
