<svg width="15" height="15" viewBox="0 0 15 15" fill="none" xmlns="http://www.w3.org/2000/svg">
<path d="M12.2092 13.275L12.6669 12.9059C12.9654 12.6653 13.1561 12.3159 13.197 11.9345C13.2379 11.5532 13.1256 11.1713 12.8848 10.8728L11.3278 8.94285C11.0873 8.64444 10.7379 8.45366 10.3566 8.41277C9.97526 8.37187 9.59331 8.48421 9.29484 8.72504C9.06371 8.91136 8.72512 8.87504 8.53862 8.64379L6.04933 5.55532C5.8629 5.32399 5.89922 4.98528 6.13049 4.79874C6.42894 4.55824 6.6197 4.20879 6.66059 3.82745C6.70149 3.44612 6.58918 3.06417 6.34839 2.76568L4.79201 0.835897C4.29099 0.214622 3.38125 0.117052 2.75987 0.617959L2.3016 0.986884C1.05029 1.99556 0.667399 3.73757 1.37993 5.17767C3.02453 8.28081 5.23344 11.0205 7.89806 13.2703C9.173 14.2893 10.9578 14.2847 12.2092 13.275Z" fill="#D1D6DB"/>
</svg>
