<svg width="15" height="16" viewBox="0 0 15 16" fill="none" xmlns="http://www.w3.org/2000/svg">
<path d="M12.4627 13.9559L12.9204 13.5868C13.2189 13.3463 13.4096 12.9968 13.4505 12.6155C13.4914 12.2341 13.3791 11.8522 13.1383 11.5537L11.5812 9.62377C11.3408 9.32537 10.9914 9.13459 10.6101 9.09369C10.2287 9.05279 9.8468 9.16513 9.54832 9.40597C9.3172 9.59228 8.9786 9.55597 8.79211 9.32471L6.30282 6.23624C6.11638 6.00491 6.15271 5.6662 6.38397 5.47966C6.68242 5.23916 6.87318 4.88971 6.91408 4.50838C6.95498 4.12705 6.84266 3.74509 6.60187 3.4466L5.0455 1.51682C4.54448 0.895546 3.63474 0.797975 3.01335 1.29888L2.55509 1.66781C1.30378 2.67649 0.920882 4.4185 1.63341 5.85859C3.27801 8.96173 5.48693 11.7014 8.15155 13.9513C9.42648 14.9702 11.2113 14.9656 12.4627 13.9559Z" fill="#3FAC49"/>
</svg>
